<?xml version="1.0" encoding="UTF-8"?>
<svg xmlns="http://www.w3.org/2000/svg" viewBox="0 0 2048 2048">
  <defs>
    <style>
      .cls-1 {
        fill: #99d3f1;
      }

      .cls-1, .cls-2, .cls-3, .cls-4, .cls-5, .cls-6, .cls-7, .cls-8, .cls-9, .cls-10, .cls-11, .cls-12, .cls-13, .cls-14, .cls-15, .cls-16, .cls-17, .cls-18, .cls-19, .cls-20, .cls-21, .cls-22, .cls-23, .cls-24, .cls-25, .cls-26, .cls-27, .cls-28, .cls-29, .cls-30, .cls-31, .cls-32, .cls-33, .cls-34, .cls-35, .cls-36, .cls-37, .cls-38, .cls-39, .cls-40, .cls-41, .cls-42, .cls-43, .cls-44, .cls-45, .cls-46, .cls-47, .cls-48, .cls-49, .cls-50, .cls-51, .cls-52, .cls-53, .cls-54, .cls-55, .cls-56, .cls-57, .cls-58, .cls-59, .cls-60, .cls-61, .cls-62, .cls-63, .cls-64, .cls-65, .cls-66, .cls-67, .cls-68, .cls-69, .cls-70, .cls-71, .cls-72, .cls-73, .cls-74, .cls-75, .cls-76, .cls-77, .cls-78, .cls-79, .cls-80, .cls-81, .cls-82, .cls-83 {
        stroke: #26251c;
        stroke-miterlimit: 10;
      }

      .cls-2 {
        fill: #63abe8;
      }

      .cls-3 {
        fill: #cbd5f9;
      }

      .cls-4 {
        fill: #e8e65f;
      }

      .cls-5 {
        fill: #95e1f3;
      }

      .cls-6 {
        fill: #e0b45c;
      }

      .cls-7 {
        fill: #63a5e2;
      }

      .cls-8 {
        fill: #9ccaf1;
      }

      .cls-9 {
        fill: #73b3ec;
      }

      .cls-10 {
        fill: #9aaef7;
      }

      .cls-11 {
        fill: #62bfde;
      }

      .cls-12 {
        fill: #77a5f5;
      }

      .cls-13 {
        fill: #9196f1;
      }

      .cls-14 {
        fill: #edb05a;
      }

      .cls-15 {
        fill: #c2bdd7;
      }

      .cls-16 {
        fill: #d4b922;
      }

      .cls-17 {
        fill: #5cb6eb;
      }

      .cls-18 {
        fill: #99d2f2;
      }

      .cls-19 {
        fill: #62c9e4;
      }

      .cls-20 {
        fill: #9dc0ee;
      }

      .cls-21 {
        fill: #8f7540;
      }

      .cls-22 {
        fill: #debd62;
      }

      .cls-23 {
        fill: #5bb6eb;
      }

      .cls-24 {
        fill: #74a9db;
      }

      .cls-25 {
        fill: #a0cdeb;
      }

      .cls-26 {
        fill: #99c8f3;
      }

      .cls-27 {
        fill: #5bd3ec;
      }

      .cls-28 {
        fill: #558afa;
      }

      .cls-29 {
        fill: #d3dafd;
      }

      .cls-30 {
        fill: #64ace8;
      }

      .cls-31 {
        fill: #de9b64;
      }

      .cls-32 {
        fill: #d49822;
      }

      .cls-33 {
        fill: #95bcf9;
      }

      .cls-34 {
        fill: #60bce8;
      }

      .cls-35 {
        fill: #95bde4;
      }

      .cls-36 {
        fill: #b4d2ee;
      }

      .cls-37 {
        fill: #9addee;
      }

      .cls-38 {
        fill: #9ccaf2;
      }

      .cls-39 {
        fill: #9bc6ed;
      }

      .cls-40 {
        fill: #9bd5f0;
      }

      .cls-41 {
        fill: #52c1ee;
      }

      .cls-42 {
        fill: #9cd6ea;
      }

      .cls-43 {
        fill: #98b9f3;
      }

      .cls-44 {
        fill: #e8b564;
      }

      .cls-45 {
        fill: #a3cbea;
      }

      .cls-46 {
        fill: #6499e5;
      }

      .cls-47 {
        fill: #9dbfef;
      }

      .cls-48 {
        fill: #99d1e9;
      }

      .cls-49 {
        fill: #5ea1ee;
      }

      .cls-50 {
        fill: #53cbed;
      }

      .cls-51 {
        fill: #53c1ee;
      }

      .cls-52 {
        fill: #9ecdee;
      }

      .cls-53 {
        fill: #92d9f4;
      }

      .cls-54 {
        fill: #e3c05f;
      }

      .cls-55 {
        fill: #edbd5c;
      }

      .cls-56 {
        fill: #d45422;
      }

      .cls-57 {
        fill: #5fbce8;
      }

      .cls-58 {
        fill: #98d0f3;
      }

      .cls-59 {
        fill: #59acf0;
      }

      .cls-60 {
        fill: #996517;
      }

      .cls-61 {
        fill: #b37f17;
      }

      .cls-62 {
        fill: #98e3f2;
      }

      .cls-63 {
        fill: #9acaf3;
      }

      .cls-64 {
        fill: #f2c068;
      }

      .cls-65 {
        fill: #5c8fec;
      }

      .cls-66 {
        fill: #5695f6;
      }

      .cls-67 {
        fill: #7ecaf2;
      }

      .cls-68 {
        fill: #76bee8;
      }

      .cls-69 {
        fill: #e6ae65;
      }

      .cls-70 {
        fill: #edbe5f;
      }

      .cls-71 {
        fill: #debc6d;
      }

      .cls-72 {
        fill: #d9a668;
      }

      .cls-73 {
        fill: #98d1f3;
      }

      .cls-74 {
        fill: #9dcbf2;
      }

      .cls-75 {
        fill: #edb553;
      }

      .cls-76 {
        fill: #c28d38;
      }

      .cls-77 {
        fill: #96cbf6;
      }

      .cls-78 {
        fill: #92dcf3;
      }

      .cls-79 {
        fill: #98c7f2;
      }

      .cls-80 {
        fill: #99d7ee;
      }

      .cls-81 {
        fill: #9fb3f7;
      }

      .cls-82 {
        fill: #92ddf3;
      }

      .cls-83 {
        fill: #66b1de;
      }
    </style>
  </defs>
  <g id="Layer_1" data-name="Layer 1">
    <path class="cls-32" d="M325.96,1491.06c-.17-3.38.27-6.5.15-9.59-1.12-27.65,1.9-54.87,8.47-81.71,1.04-4.24,2.29-8.43,3.66-13.37,1.72-5,3.21-9.27,4.95-14.28,3.16-7.59,5.78-14.57,9.05-21.24,6.7-13.68,13.74-27.2,21.61-41.16,2.85,2.74,4.7,5.88,6.64,8.96,1.27,2.02,2.67,3.95,3.78,6.52-.53,1.4-.82,2.2-1.58,3.75-9.31,16.21-16.8,32.38-22.75,49.12-7.74,21.78-13.26,44.19-14.9,67.39-1.05,14.95-2.05,29.9-.53,45.28-.22.41-.67,1.24-1.31,1.22-5.81-.04-10.98-.06-16.15-.08,0,0-.73-.53-1.08-.8Z"/>
    <path class="cls-10" d="M205.77,986.27c-11.18-2.84-22.5-5.24-33.52-8.61-16.22-4.97-31.11-13.1-45.97-21.12-6.85-3.7-13.3-8.15-20.65-12.63-9.54-8.73-18.31-17.13-24.94-27.45-10.51-16.37-18.76-33.71-22.95-53.45-.25-1.61-.27-2.66.37-4.09,2.76-.51,4.88-.64,7.85-.82.82,6.13,1.59,11.88,2.39,17.88,4.04.65,7.69,1.23,11.87,2.14,1.6.99,2.68,1.65,3.83,2.92,1.25,7.63,5.31,13.39,8.99,19.08,10.1,15.57,21.61,29.92,38.81,38.44,1.94.96,3.55,2.59,5.47,3.61,5.5,2.92,11.04,5.77,16.64,8.49,2.52,1.22,5.34,1.84,7.84,3.1,11.83,5.98,24.53,9.32,37.93,12.74,1.88.94,3.14,1.56,4.2,2.79.23,3.35.74,6.07,1.08,8.8.34,2.72.5,5.45.74,8.18Z"/>
    <path class="cls-25" d="M1211.66,1481.35c-2.47.07-4.96-.05-7.4.24-16.19,1.92-32.12.53-47.93-3.24-2.66-.63-5.47-.59-9.19-.79-1.34-.14-1.71-.36-2.49-1.34-3.57-2.72-6.63-4.85-9.87-6.66-13.08-7.29-26.86-13.14-39.35-21.72-18.41-12.64-34.82-27.43-50.49-43.13-4.14-4.15-7.72-9.12-10.52-14.28-7.5-13.85-6.52-27.46,2.55-40.43,1.07-1.53,1.89-3.23,3.29-5.38,8.78-9.01,17.16-17.43,25.41-25.98,18.7-19.4,34.42-41.13,49.54-63.35,5.25-7.71,11.12-15.02,16.99-22.29,10.82-13.4,30.85-14.81,42.6-7.39,2.63,1.66,5.57,2.84,9,4.67,8.07,6.55,15.32,12.95,24.13,17.22-.16.36-.42,1.09-.66,1.76-2.46,6.7-.15,11.41,3.99,15.72,4.05,4.22,8.24,8.38,9.31,13.94-4.6-2.52-9.73-2.83-11.96-7.85-.53-1.18-2.53-1.69-3.82-2.56-2.57-1.74-5.19-3.42-7.67-5.28-8.98-6.71-17.86-13.56-26.89-20.21-6.87-5.05-17.79-4.64-23.28,1.35-6.3,6.87-12,14.29-18.29,22.01-.7,1.3-1.07,2.05-1.85,3.54-3.32,5.13-6.39,9.44-9.12,13.96-6.79,11.26-15.27,21.24-23.93,31.02-9.71,10.97-18.84,22.52-30.24,31.94-1.86,1.54-3.03,3.93-5.13,6.22-13.14,12.19-14.16,22.11-3.18,35.31,5.76,6.93,12.61,12.96,19.11,19.25,11.24,10.88,23.44,20.72,36.92,28.57,13.21,7.69,27.25,13.97,41.59,21.25,4.48,1.64,8.22,3.2,12.11,4.09,16.21,3.69,32.44,4.06,49.26-.27,4.31-.74,8.09-1.11,11.63-2.25,28.13-9.1,53.11-23.52,74.32-44.28,3.54-3.47,7.52-6.5,11.93-9.38,4.06,2.3,7.34.94,10.58-.19,3.36-1.18,6.65-1.83,9.53.82-2.94,3.76-5.31,7.06-8.05,10.02-27.69,29.95-60.46,51.72-100.31,62.08-2.7.7-5.27,1.89-8.44,2.88-1.6.16-2.67.29-3.73.41Z"/>
    <path class="cls-32" d="M1203.62,848.75c-.08-.27,0-.46.11-.8.35.24.65.63.96,1.18,0,.15-.01.16-.01.16-.3-.15-.6-.31-1.06-.53Z"/>
    <path class="cls-32" d="M1204.89,849.88c.18.19.35.37.56.69.04.13.04.12.04.12-.18-.19-.36-.37-.57-.68-.03-.13-.03-.13-.03-.13Z"/>
    <path class="cls-32" d="M1203.33,845.94c-.07-.14-.09-.4-.07-.8.07.14.09.4.07.8Z"/>
    <path class="cls-32" d="M1205.48,850.7s.09.14.09.14c0,0-.09-.05-.08-.1,0-.05,0-.04,0-.04Z"/>
    <path class="cls-32" d="M1204.69,849.27c.1.11.16.25.19.5,0,.11,0,.11,0,.11-.1-.11-.16-.24-.2-.49,0-.11,0-.11.01-.12Z"/>
    <path class="cls-32" d="M1203.66,847.19c-.06-.03-.11-.18-.19-.46.05.03.12.18.19.46Z"/>
    <path class="cls-81" d="M194.81,748.59c1.45.57,2.18.97,3.16,2.3-.6,6.66-1.67,12.42,2.22,17.84-.24.35-.72,1.07-1.42.73-9.11-2.72-17.52-5.1-25.93-7.48-17.13-4.86-34.25-9.77-51.4-14.58-5.11-1.43-10.23-3.02-15.45-3.81-11.74-1.76-18.96,2.3-24.42,12.61-3.11,5.87-5.26,12-6.58,18.48-2.69,13.25-3.74,26.73-3.54,40.13.3,19.36,1.31,38.79,7.8,57.4.59,1.69.31,3.69.43,5.55-3.65-.58-7.3-1.17-11.34-1.81-.8-6-1.57-11.74-2.39-17.88-2.98.18-5.09.31-7.8.3-4.83-19.59-5.41-39.28-4.17-59.04.88-14.08,2.18-28.19,7-41.54,2.41-6.68,5.48-13.51,9.85-19.02,9.38-11.82,22.71-15.38,37.14-13.33,8.6,1.22,16.93,4.34,25.38,6.61,20.24,5.45,40.48,10.9,61.44,16.52Z"/>
    <path class="cls-37" d="M1306.36,808.95s-.42.76-.64,1.13c-6.33,1.7-12.45,3.02-18.57,4.34-7.41,1.59-14.84,2.44-22.41,1.17-7.03-1.17-13.18-4.05-18.11-9.22-7.05-7.4-12.16-15.68-13.76-26.16-2.93-19.23-7.53-38.1-13.66-56.6-1.97-5.93-2.67-12.32-4.94-18.11-7.54-19.24-13.38-39.14-22.43-57.81-3.43-7.08-5.14-14.66-4.86-22.77.59-17.07,9.94-27.9,24.41-34.95,4.42-2.16,9.52-3.34,14.43-3.98,48.51-6.4,97.04-12.6,145.57-18.82,3.41-.44,6.86-.52,10.95.04,1.91,6.08,3.41,11.34.28,16.9-.21.36-.63,1.07-1.27.9-1.88-.16-3.14-.29-4.37-.13-43.83,5.5-87.66,10.93-131.46,16.63-8.66,1.13-17.19,3.24-25.76,5-10.88,2.23-18.04,16.52-13.51,26.85,2.89,6.58,5.54,13.28,7.96,20.06,7.25,20.35,14.52,40.7,21.41,61.17,6.5,19.31,10.99,39.15,14.49,59.21.54,3.07,1.13,6.22,2.36,9.05,4.37,10.05,11.3,16.06,23.45,14.78,4.96-.52,9.88-1.57,14.77-2.59,6.12-1.27,12.2-2.74,18.26-3.43-.89,6.24-1.75,11.79-2.61,17.34Z"/>
    <path class="cls-40" d="M1203.81,842.9c.46,16.52.89,32.49.93,48.46.08,37.12-4.22,73.73-13.21,109.78-1.74,6.98-3.38,14-4.8,21.05-2.54,12.63-6.84,24.67-11.67,36.56-.94,2.3-1.44,4.78-2.2,7.16-2.77,8.73-10.71,12.65-19.31,9.5-1.17-.43-2.28-1.03-3.4-1.6-51.41-26.17-102.82-52.34-154.22-78.51-.56-.28-1.09-.62-2.24-1.74-.61-.8-.33-1.56.06-2.32,2.23-4.36,3.87-8.07,5.96-11.51,1.23-2.02,3.16-3.61,5.02-4.76.4,5.91,4.21,7.93,8.26,9.99,45.05,22.84,90.06,45.75,135.1,68.6,2.43,1.23,5.06,2.09,7.18,2.96,1.19-.9,1.98-1.18,2.13-1.66,3.33-10.39,8.99-19.94,10.61-30.97.91-6.18,2.66-12.24,4.23-18.3,8.53-32.88,13.24-66.33,14.64-100.25,1.43-34.58-1.28-68.9-7-103-.67-4-1.04-8.05-.95-11.75,1.97,1.95,3.81,3.36,4.61,5.21,2.95,6.8,5.25,13.9,8.4,20.6,2.57,5.45,3.52,12.09,9.7,15.3.64,3.55,1.29,7.1,2.14,11.2Z"/>
    <path class="cls-80" d="M1503.71,560.65c15.11,3.04,25.76,11.31,34.25,23.84,1.01,3.63,1.51,6.8,1.17,10.86-2.56,3.74-4.74,6.41-5.9,9.47-2.82,7.45-5.03,15.12-7.77,22.6-1.2,3.29-.34,5.31,2.56,6.82-1.18,2.34-2.36,4.69-4.6,7.44-3.04-.26-4.68.14-5.98,1.87-1.41,1.87-2.91,3.68-4.43,5.6-3.77-2.45-6.86-4.46-9.8-6.92.26-.75.37-1.05.91-2.06,2.79-4.38,5.19-8.03,7.5-11.73,4.49-7.18,8.52-14.55,10.29-22.98,1.99-9.52-.98-16.68-9.36-21.36-3.54-1.98-7.32-3.54-11.65-5.39-3.75-.45-6.84-.99-9.94-1.1-20.26-.75-40.46.35-60.63,2.06-15.83,1.34-31.65,2.73-47.47,4.1,2.92-5.21,1.42-10.47.14-16.37,12.03-2.03,24.05-3.74,36.14-4.74,17.69-1.45,35.4-2.77,53.13-3.39,10.23-.36,20.52.77,31.46,1.39Z"/>
    <path class="cls-37" d="M1201.72,831.06c-6.24-2.57-7.19-9.21-9.75-14.66-3.15-6.7-5.45-13.8-8.4-20.6-.81-1.86-2.64-3.27-4.94-5.74-1.49-2.94-2.07-5.01-2.61-7.1-1.69-6.56-3.36-13.11-5.04-20.3-1.25-6.11-2.11-11.73-3.86-17.05-1.69-5.12-1.91-11.1-6.78-15.07-1.47.64-2.66,1.01-3.68,1.64-12.75,7.93-25.49,15.88-38.2,23.88-2.42,1.52-4.7,3.19-7.6,1.48,3.23-6.72,3.29-12.72.61-19.11.14-.34.69-.83.69-.83,5.86-.85,9.8-5.18,14.98-8.53,6.37-3.92,12.34-7.31,18.26-10.78,4.04-2.37,7.84-5.24,12.08-7.18,9.32-4.26,16.02-1.62,19.42,7.95,4.08,11.5,8.11,23.08,11.06,34.9,3.86,15.44,6.91,31.1,9.81,46.76,1.81,9.81,2.7,19.8,3.95,30.34Z"/>
    <path class="cls-5" d="M1007.9,431.35c-10.74-3.21-21.4-6.76-32.25-9.56-17.32-4.47-29.26-22.01-27.24-40.71,1.43-13.25,7.12-23.71,18.1-31.34,13.52-9.39,28.24-15.9,44.49-18.84,3.38-.61,6.75-1.26,10.68-2.14,11.57-.77,22.32.6,33.03,3.29,12.04,3.03,22.95,8.64,32.89,15.5,12.98,8.96,22.82,21.23,30.01,35.41,1.83,3.62,3.55,7.3,5.66,11.49,1.66,6.59,2.92,12.64,4.31,18.67,3.08,13.32,2.65,26.51-2.17,39.3-1.37,3.65-4.27,6.72-7.35,11.12-5.98,4.66-10.55,9.11-16.88,10.69-13.58,3.38-25.91,1.71-36.99-7.73-8.31-7.08-16.87-14.07-26.12-19.82-9.55-5.93-20.07-10.3-30.16-15.35ZM1007.15,411.59c.85.4,1.67.91,2.56,1.18,20.11,6.05,37.19,17.64,54.02,29.63,4.06,2.9,7.65,6.45,11.54,9.6,16.5,13.37,33.75.81,35.62-13.63.4-3.09.9-6.28.57-9.33-.69-6.21-1.67-12.42-2.98-18.53-3.23-15.13-11.12-27.89-21.26-39.25-6.29-7.05-14.17-12.69-22.6-16.49-8.43-3.79-17.86-5.83-27.06-7.31-6.95-1.12-14.33-1.82-22.58.96-5.42,1.35-11.09,2.11-16.21,4.19-6.33,2.57-12.4,5.96-18.23,9.55-3.64,2.24-7.05,5.16-9.84,8.41-6.91,8.05-6.15,21.92,1.76,28.76,3.19,2.76,7.41,4.71,11.48,6,7.13,2.25,14.51,3.71,23.22,6.25Z"/>
    <path class="cls-62" d="M1013.72,478.17c7.23,3.2,13.18,8.21,19.26,13.17,29.89,24.37,53.54,54.19,75.5,85.52,2.33,3.32,4.59,6.68,7.39,10.42,7.14,12.09,13.89,23.71,20.34,35.49,4.66,8.49,9.17,17.08,13.32,25.83,5.53,11.63,2.99,20.33-8.04,27.35-9.75,6.21-19.79,11.96-30.77,17.87-2.32-3.11-3.66-6.14-4.81-9.24-.74-1.97-1.21-4.04-1.49-6.59.75-1.21,1.19-1.9,2.23-2.68,9.29-5.41,18.84-9.43,26.83-16.74-1.39-3.4-2.37-6.33-3.75-9.07-10.6-20.93-22.47-41.11-35.22-60.81-18.13-28.01-40.02-52.75-63.99-75.77-2.91-2.79-6.32-5.05-10.03-8-2.6-2.27-4.67-4.1-6.48-6.53.14-3.27.42-6.02-.19-8.57-.95-3.94-1.51-7.76-.12-11.66Z"/>
    <path class="cls-82" d="M1104.12,678.52c.59,2.03,1.07,4.09,1.8,6.07,1.16,3.1,2.49,6.13,4.26,9.57-.32,1.01-1.15,1.64-2.38,2.61-15.92,9.73-31.44,19.12-46.96,28.51-20.62,12.49-41.25,24.95-61.83,37.5-5.34,3.26-10.62,6.65-15.7,10.29-5.68,4.07-11.64,6-19.95,3.17-23.8-12.16-46.2-23.63-68.19-35.66,4.36-4.34,8.31-8.12,13.07-11.56,10.97,5.41,21.14,10.47,32.06,15.98,8.27,4.31,15.86,8.04,23.29,12.09,4.01,2.18,7.48,2.16,11.35-.39,6.79-4.46,13.79-8.61,20.74-12.84,24.83-15.14,49.65-30.31,74.53-45.36,11.22-6.79,22.59-13.33,33.9-19.98Z"/>
    <path class="cls-37" d="M1111.59,734.52c-.31-.64-.39-1.86-.22-3.68.32.63.38,1.87.22,3.68Z"/>
    <path class="cls-37" d="M1112.21,737.11c-.35-.06-.67-.6-.92-1.62.36.06.66.6.92,1.62Z"/>
    <path class="cls-73" d="M895.19,740.58c-1.18.25-1.96-.06-3.35-.53-12.84-6.53-25.05-12.94-37.3-19.26-9.47-4.89-18.91-9.86-28.52-14.45-8.46-4.03-17.3-7.27-25.67-11.46-4.99-2.5-9.61-5.88-14.01-9.35-5.55-4.38-6.99-11.02-8.01-17.54-.87-5.56-1.07-11.22-1.5-16.84-3.99-51.51-7.95-103.01-11.97-154.52-.39-4.99-1-9.98-1.68-14.94-1.38-10.23,3.59-16.91,12.46-19.1,7.28-1.79,14.65-3.27,22.06-4.46,9.58-1.54,19.22-2.65,29.38-4.23,1.31-.01,2.07.26,3.2,1.42.66,3.21.67,5.63,1.31,7.86.88,3.04.99,5.86-1.25,8.88-8.36,1.22-16.15,2.06-23.9,3.22-7.98,1.19-16.22,1.16-23.89,4.52-1.69,8.12,0,15.9.56,23.63,1.72,23.45,3.92,46.87,5.75,70.31,2.26,29.07,4.45,58.15,6.4,87.24.52,7.69,3.66,12.61,10.73,16.08,22.54,11.06,44.83,22.66,67.24,34,11.48,5.81,23.01,11.52,34.45,17.36-.08.08-.24.24-.24.24-3.95,3.79-7.91,7.57-12.27,11.91Z"/>
    <path class="cls-73" d="M614.03,520.04s.43-.82.66-1.23c16.68-8.02,33.14-15.63,49.58-23.25,1.13-.53,2.18-1.27,3.34-1.71,11.13-4.17,22.23-8.45,33.46-12.35,3.48-1.21,7.3-1.54,11.01-1.94,5.5-.6,9.04,2.39,10.79,7.21,1.48,4.08,2.82,8.39,3.17,12.69,3.59,44.93,6.94,89.87,10.42,134.81.92,11.86,1.99,23.71,3.06,35.55,1.07,11.86-2.94,21.5-12.51,28.65-9.79,7.31-19.66,14.5-30.64,21.52-3.37-4.84-5.6-9.46-7.52-14.62.73-1.25,1.15-1.97,2.17-2.86,9.32-6.8,17.96-13.53,26.78-20.02,3.55-2.61,4.14-5.96,3.82-9.91-.58-7.18-1.01-14.36-1.58-21.54-3.84-48.36-7.68-96.72-11.59-145.08-.16-2.01-.99-3.97-1.6-6.31-2.78.63-4.96.89-6.95,1.63-7.03,2.62-14.07,5.25-20.98,8.17-12.38,5.22-24.73,10.54-36.99,16.04-8.82,3.96-17.47,8.3-26.7,12.03-.93-2.76-1.65-5.07-1.71-7.4-.08-3.36.32-6.72.52-10.08Z"/>
    <path class="cls-38" d="M617.32,476.76c-4.24.09-7.97-.58-11.68-.44-18.81.71-30.45-9.5-38.43-25.13-2.84-5.56-5.01-11.47-7.88-17.72-1.26-3.83-1.68-7.35-3.08-10.43-3.13-6.89-4.85-14.15-6.98-21.36-8.42-28.48-12.24-57.56-13.12-87.16-1.13-38.2,3.5-75.75,12.78-112.71,3.27-13.02,7.97-25.68,12.62-39.58.6-1.08,1.13-1.83,1.78-1.58,5.74,1.35,10.82,2.45,15.88,4.33-.48,2.6-.69,4.51-1.42,6.21-8.18,19.1-13.54,39.07-17.01,59.44-5.22,30.63-8.18,61.46-6.3,92.66,1.55,25.76,5.39,51.12,12.62,75.84,4.04,13.8,9.6,27.16,14.56,40.69.75,2.04,1.94,3.93,3.02,5.84,6.81,11.9,18.12,15.49,30.39,9.81,4.51-2.09,9.14-3.93,13.35-5.16-3.78,7.13-5.54,14.03-6.49,21.18-1.37,1.63-2.75,3.26-4.63,5.28Z"/>
    <path class="cls-73" d="M622.57,471.39c.33-7.06,2.1-13.96,6.1-21.5.59-1.13,1.02-1.96,1.64-2.01,4.96-1.83,9.27-3.67,13.64-5.36,9.94-3.83,20.1-7.15,29.83-11.45,20.21-8.91,41.63-13.65,62.88-19.01,6.68-1.68,13.51-2.87,20.06-4.95,12.89-4.11,19.45-15.64,16.11-28.73-1.29-5.07-3.9-9.89-6.45-14.52-5.3-9.61-10.98-19-16.48-28.5-2.19-3.79-4.31-7.61-6.31-11.84.16-.42.44-1.27,1.09-1.3,6.01-1.77,10.27-4.9,13.07-9.86.3.12.6.24,1.35.5,6.63,15.29,15.29,29.1,23.67,43.05,4.24,7.06,7.72,14.16,8.67,22.55,2.94,26.07-13.14,43.46-35.2,47.84-28.68,5.7-56.53,14.05-83.88,24.05-16.71,6.11-32.8,13.91-49.79,21.05Z"/>
    <path class="cls-53" d="M858.69,769.21c24.92,12.63,49.24,25.03,73.57,37.43,1.96,1,3.94,1.95,5.87,2.99,8.14,4.35,12.77,10.83,12.58,20.36-.43,21.32-.82,42.64-1.19,63.97-.17,9.72-.16,19.45-.36,29.17-.29,14.11-.72,28.21-1.03,42.32-.08,3.45-.29,6.96.24,10.33.87,5.57-.18,10.59-3.95,15.63-1.7-1.64-2.94-3.53-3.16-5.54-.54-4.9-.5-9.86-.89-14.79-.49-6.16-2.89-8.84-9.38-11.25-.49-4.69-.76-8.79-.88-13.58.54-4.1,1.19-7.52,1.25-10.95.58-32.94.93-65.88,1.69-98.82.14-6.24-2.02-9.71-7.57-12.45-20.84-10.26-41.49-20.92-62.19-31.48-6.43-3.28-12.76-6.74-18.8-10.77,2.27-2.92,4.22-5.18,6.13-7.47,1.72-2.06,3.41-4.16,5.11-6.24.79.3,1.57.61,2.95,1.13Z"/>
    <path class="cls-73" d="M855,767.61c-.96,2.55-2.64,4.65-4.37,6.71-1.91,2.29-3.86,4.54-6.8,7.25-2.31-.12-3.6-.69-5.65-1.68-22.46-11.5-44.28-22.35-65.79-33.76-6.36-3.37-11.01-3.43-16.88,1.21-14.2,11.22-28.96,21.73-43.55,32.46-2.74,2.02-5.73,3.7-8.79,4.93.6-2.18,1.41-3.75,2.18-5.33.65-1.34,1.97-2.83,1.75-4.03-.69-3.81-.21-8.1-3.54-11.09.35-.68.7-1.37,1.32-2.56,1.98-1.24,3.91-1.68,5.36-2.76,10.56-7.85,21.03-15.83,31.52-23.78.25-.19.46-.42.7-.62,14.64-12.12,21.09-14.26,38.93-4.75,24.08,12.83,48.55,24.92,73.6,37.8Z"/>
    <path class="cls-77" d="M693.75,724.62c-2.81,1.87-5.49,2.85-7.68,4.48-25.89,19.3-51.74,38.65-77.52,58.09-6.25,4.71-12.46,4.98-19.3,1.41-11.12-5.81-22.37-11.37-34.39-17.37-.82-.34-.69-.48-.28-1.22,3.81-5.37,2.4-11.13,4.8-15.8,9.43,4.77,18.06,9.18,26.73,13.52,2.23,1.11,4.53,2.12,6.88,2.93,3.77,1.3,7.17.84,10.52-1.75,8.65-6.69,17.54-13.08,26.28-19.64,18.74-14.07,37.44-28.18,56.18-42.24.73-.54,1.69-.76,2.55-1.13,2.23,4.62,4.47,9.24,7.23,14.28-.2,1.57-.93,2.72-2.01,4.45Z"/>
    <path class="cls-82" d="M830.94,471.82c1.65-2.77,1.54-5.59.66-8.63-.64-2.23-.66-4.65-.75-7.64,5.98-1.41,11.74-2.49,17.55-2.85,9.24-.58,18.51-.67,28.37-1.19,23.21-.35,45.72.66,68.12,4.14,18.32,2.85,36.28,6.98,53.72,13.29,3.23,1.17,6.25,2.91,10.14,4.74,1.92,1.43,3.08,2.5,4.61,4.02-1.02,4.36-.45,8.18.5,12.12.61,2.54.34,5.3-.48,8.2-12.34-9.03-25.78-13.9-39.72-17.67-21.5-5.81-43.48-8.74-65.64-10.21-7.12-.47-14.32.15-22.14.11-18.28-.93-35.83-.12-53.71,2.23-.41-.21-1.22-.67-1.22-.67Z"/>
    <path class="cls-39" d="M373.99,789.56c-5.88,12.38-10.68,25.28-15.67,38.07-5.32,13.65-10.44,27.39-15.38,41.19-3.15,8.81-5.79,17.79-8.66,26.7.02.59.11,1.17.47,2.13,4.14,4.4,8.08,8.41,12.62,12.81,3.85-9.36,6.99-19.16,10.37-28.88,4.51-12.94,9.14-25.85,13.86-38.72,3.65-9.95,7.43-19.84,11.33-29.69,1.49-3.77,3.42-7.38,5.24-11.01,5.04-10.07,10.1-20.14,15.2-30.18,1.4-2.75,2.97-5.4,4.18-7.57,4.67-1.37,7.44,1.14,10.42,2.64,14.27,7.16,28.47,14.44,43.49,22.05,2.66-4.54,4.52-9.46,6.59-15.13-1.19-.98-2.43-1.81-3.79-2.62-.78-.29-1.56-.61-2.31-.99-.93-.47-2-1.12-2.94-1.9-.22-.12-.43-.23-.65-.35-1.91-1.09-2.61-1.44-3.32-1.8-1.31-.58-2.63-1.15-5.32-2.51-9.96-5.07-18.72-9.04-27.05-13.76-3.25-1.84-6.53-3.32-9.93-4.24-.25.06-.5.12-.77.2.25-.06.51-.11.07.03-1.6.52-3.33,0-4.44-1.16-2.94-.27-6-.1-9.24.65-11.29,13.5-17.29,29.11-24.38,44.03Z"/>
    <path class="cls-33" d="M558.6,753.83c-1.61,5.05-.2,10.81-3.94,16.12-39.74-19.29-79.18-39.21-118.55-59.26-9.86-5.02-12.1-12.66-6.67-22.57,2.54-4.63,5.57-9.07,8.84-13.22,8.7-11.03,17.65-21.85,27.59-32.8,4.04,4.2,7,8.45,9.8,13.16-.27.76-.38,1.07-.93,1.98-8.15,10.42-15.9,20.2-23.51,30.07-1.68,2.18-3.46,4.53-2.31,8.54,3.8,2.57,7.91,6.02,12.56,8.41,31.16,15.99,62.43,31.76,94.12,47.9.79.44,1.12.59,1.84.96.4.23,1.16.72,1.16.72Z"/>
    <path class="cls-77" d="M475.83,654.8c-2.96-4.25-5.92-8.5-9.39-13.13-.21-1.15.1-1.91.65-3.23,7.53-8.69,14.65-16.99,22.17-24.91,35.36-37.22,76.06-67.5,120.9-92.33.81-.45,1.74-.67,3.24-1.07.42,3.28.02,6.65.1,10,.06,2.33.78,4.64,1.32,7.87-1.9,2.24-3.91,3.57-6.48,5.21-21.61,12.14-41.35,25.84-60.21,40.98-23.77,19.08-45.78,39.81-64.99,63.5-2.13,2.62-4.86,4.76-7.31,7.12Z"/>
    <path class="cls-12" d="M465.93,771.92c-.22-.07-.43-.14-.65-.22,1.01.51,2,1.01,2.99,1.51,0-.01.01-.02.02-.04-.79-.41-1.58-.83-2.36-1.25Z"/>
    <path class="cls-12" d="M453.61,765.37c-.44-.24-.85-.48-1.23-.7-.74-.28-1.37-.44-1.86-.5,1.63.85,2.82,1.39,3.81,1.59-.24-.13-.49-.26-.73-.39Z"/>
    <path class="cls-32" d="M326.98,1492.5c5.23-.62,10.4-.6,16.45.02,2.58,15.86,4.88,31.06,9.43,45.73,6.54,21.08,16.1,40.67,30.19,57.94,13.2,16.2,29.51,28.18,48.97,35.23,19.02,6.89,38.89,9.45,59.18,6.83,11.47-1.49,23-2.7,34.09-7.58.75.3,1.05.41,1.49,1.09.9,1.42,1.67,2.28,2.21,3.69-.1,1.96.03,3.36.1,4.12,4.61,1.19,8.43,2.17,12.36,3.35.12.2.34.6.34.6-3.63,1.81-7.27,3.61-11.38,5.78-3.84.86-7.3.99-10.53,1.93-28.79,8.39-57.72,8.46-86.28-.15-32.81-9.89-57.97-30.25-76.09-59.31-16.9-27.09-26.04-56.83-30.05-88.29-.44-3.41-.37-6.88-.46-10.97Z"/>
    <path class="cls-32" d="M305.61,1493.47c.44-.17,1.33-.24,2.64-.21-.45.17-1.32.24-2.64.21Z"/>
    <path class="cls-32" d="M529.2,1634.88c-.76-.86-1.53-1.71-1.91-3.46,4.67-2.78,8.91-4.75,13.24-6.53,19.79-8.1,37.94-19.1,54.88-32,18.46-14.05,34.69-30.51,49.26-48.55,3.7-4.58,6.63-9.77,10.31-14.53.4.15,1.19.45,1.01,1.09,1.01,6.8,2.37,12.86,8.15,16.98-.93,1.91-1.57,3.17-2.2,4.43-12.42,14.97-25.63,29.22-40.2,42.08-20.32,17.93-42.57,33.06-67.39,44.2-2.57,1.15-5.02,2.57-8.07,4.22-1.53.43-2.52.52-4,.64-.5.04-.72-.36-1.13-1.14-4.25-3-8.1-5.23-11.94-7.45Z"/>
    <path class="cls-32" d="M1158.67,821.53c.06.05.19.15.35.32-.07-.04-.18-.15-.35-.32Z"/>
    <path class="cls-32" d="M375.62,1304.01c3.78-7.29,7.15-14.03,10.94-20.52,10.41-17.83,21.2-35.42,36.32-50.7,4.16,4.39,7.16,8.67,9.9,13.52-.63,1.32-1,2.08-1.84,3.4-1.53,1.71-2.71,2.76-3.63,4-12.91,17.52-24.51,35.86-34.64,55.13-2.75,5.23-5.45,10.49-8.18,15.74-1.34-1.97-2.74-3.91-4.01-5.92-1.94-3.08-3.79-6.21-6.19-9.71.03-1.68.57-2.98,1.33-4.94Z"/>
    <path class="cls-43" d="M262.12,987.69c-7.48,3.37-15.23,4.57-23.43,3.43-9.46-1.32-18.97-2.3-29.12-3.28-1.36-.23-2.07-.6-3.29-1.27-.76-3.03-.92-5.77-1.26-8.48-.34-2.74-.85-5.46-.41-8.79,7.61.37,14.32,1.63,21.09,2.26,7.65.71,15.28,2.93,23.56.89,1.58-.03,2.64-.08,3.72.52.82,6.83,5.4,9.96,9.79,13.48-.22.41-.66,1.24-.66,1.24Z"/>
    <path class="cls-21" d="M524.84,1630.48c-10.64,5.07-22.18,6.28-33.64,7.77-20.29,2.63-40.16.06-59.18-6.83-19.46-7.05-35.77-19.03-48.97-35.23-14.08-17.28-23.65-36.87-30.19-57.94-4.55-14.66-6.85-29.87-8.79-45.71-.23-.58.21-1.4,1.08-1.61,7.74.04,14.62.29,21.5.52,16.86.58,33.71,2.81,50.6.96,5.86-.64,11.63-2.13,17.71-3.33.63-.24.98-.4,1.46-.61.13-.03.4-.09.89.06,1.51.06,2.53-.03,3.51-.1-.04.02-.13.02.5.18,3.46.33,6.29.49,9.94,1.03,6.4,3.21,12.1,5.84,17.56,8.9,13.11,7.36,14.78,10.61,13.78,25.53-.1,1.56-.56,3.1-.56,4.65.01,8.12-.64,16.33.36,24.33,1.76,14.06,6.26,27.39,13.97,39.45,5.21,8.16,9.95,16.69,15.89,24.3,3.76,4.82,6.68,10.72,12.6,13.67Z"/>
    <path class="cls-32" d="M434.69,1489.18c-5.81,1.1-11.58,2.58-17.44,3.23-16.89,1.85-33.74-.38-50.6-.96-6.88-.24-13.76-.49-21.28-.94-2.38-15.17-1.39-30.12-.33-45.07,1.64-23.2,7.15-45.61,14.9-67.39,5.95-16.73,13.44-32.9,23.24-48.75,3.86,3.83,6.77,8.03,9.87,12.87,1.78,2.51,3.18,4.62,5.04,6.2,2.09,1.78,2.98,3.81,3.12,6.47.67,12.48,5.2,23.64,11.99,33.97,3.08,4.69,6.35,9.27,9.26,14.06,5.86,9.63,10.7,19.78,13.62,30.67,2.9,10.82,5.58,21.72,7.68,32.72,1.07,5.59,3.74,11.56-.72,17.8-1.02,1.87-1.68,3.13-2.34,4.38,0,0,.09,0-.37-.16-1.47-.07-2.49.02-3.5.1,0,0-.27.05-.68.15-.8.19-1.15.37-1.44.64Z"/>
    <path class="cls-32" d="M392.86,1341.53c-2.91-4.2-5.83-8.4-9.23-12.97-.19-1.17.1-1.98.63-3.38,2.96-5.84,5.66-11.1,8.41-16.34,10.13-19.27,21.72-37.61,34.64-55.13.92-1.24,2.09-2.3,3.98-3.48,3.18,5.41,5.66,10.81,7.87,16.32,3.37,8.42,6.51,16.94,9.82,25.39,5.13,13.1,10.27,26.2,15.52,39.26,2.1,5.22,3.91,10.7,6.92,15.37,3.7,5.73,7.8,11.62,13.02,15.85,8.72,7.06,15.59,15.3,21.09,24.92,10.57,18.51,21.19,36.99,31.85,55.45,2.51,4.34,5.06,8.73,10,11.67,3.02,3.97,5.9,7.32,8.5,11.35-1.81,5.01-3.32,9.34-5.44,13.94-2.25,2.06-3.89,3.85-6.08,6.25-5.74-2.73-11.33-5.39-17.65-8.5-14.72-8.58-23.12-21.45-28.83-35.88-5.32-13.45-11.81-26.24-18.55-38.95-2.63-4.97-5.59-9.85-9.04-14.28-14-17.97-32.57-28.94-54.43-34.68-2.38-.63-4.83-1.34-6.96-2.53-5.44-3.06-10.7-6.41-16.04-9.65Z"/>
    <path class="cls-64" d="M80.22,878.1c-.65-2.18-.37-4.18-.96-5.88-6.48-18.61-7.5-38.04-7.8-57.4-.21-13.4.84-26.89,3.54-40.13,1.32-6.48,3.48-12.61,6.58-18.48,5.46-10.32,12.68-14.37,24.42-12.61,5.22.78,10.34,2.37,15.45,3.81,17.15,4.81,34.27,9.72,51.4,14.58,8.41,2.39,16.82,4.76,25.75,8.15.37,4.11,0,7.22.13,10.31,1.17,28.62.75,57.22-.44,85.83-.24,5.74-2.52,11.7.12,18.12-7.69,17.56-7.72,34.61-1.19,51.6,1.67,4.35,2.64,8.24-.38,12.12-3.03-1.52-5.36-2.69-8.3-4.2-1.87-1.67-3.41-2.82-4.35-4.35-4.22-6.85-8.1-13.92-12.43-20.7-4.64-7.28-8.17-15.37-14.98-21.66-1.06-5.6-2.04-10.69-3.13-15.76-.38-1.79-1.02-3.52-1.55-5.28-2.09,6.8.47,13.89-4,19.76.03-.04.13-.06-.32.11-1.18.78-1.92,1.39-3.02,2.62-1.43,1.78-2.28,3.24-3.56,4.01-6.48,3.91-12.49,8.28-17.47,14.11-1.87,2.18-4.23,4.79-8.05,4.02-4.85-8.43-9.44-16.98-14.59-25.18-2.97-4.73-6.77-8.97-10.35-13.3-1.71-2.06-4.03-2.96-6.76-1.92-1.08-.66-2.15-1.32-3.76-2.3Z"/>
    <path class="cls-70" d="M84.05,881.02c2.65-1.66,4.97-.75,6.68,1.31,3.58,4.33,7.38,8.56,10.35,13.3,5.15,8.2,9.75,16.75,14.59,25.18,3.82.77,6.19-1.84,8.05-4.02,4.98-5.83,10.99-10.2,17.47-14.11,1.28-.77,2.13-2.24,4.02-4.12,1.56-1.39,2.29-2.04,3.02-2.69,0,0-.1.02.55.02,3.48-.9,5.76.44,8.02,1.83,6.78,5.77,10.31,13.86,14.95,21.14,4.32,6.79,8.21,13.85,12.43,20.7.94,1.52,2.48,2.68,4.57,4.95,3.43,3.33,6.02,5.71,8.98,8.62,2.37,4.56,3.96,8.62,1.39,13.02-12.78-3.1-25.48-6.43-37.31-12.42-2.5-1.26-5.32-1.88-7.84-3.1-5.6-2.72-11.14-5.57-16.64-8.49-1.92-1.02-3.53-2.64-5.47-3.61-17.2-8.52-28.72-22.87-38.81-38.44-3.69-5.69-7.74-11.45-8.99-19.08Z"/>
    <path class="cls-55" d="M199.74,966.49c1.95-4.73.36-8.79-1.8-13.85-.24-2.08-.33-3.13-.41-4.18,2.32-4.23,1.35-8.12-.32-12.47-6.54-16.99-6.5-34.04,1.93-51.24,13.46,4.86,20.38,13.8,20.98,27.53.39,8.89,3.43,17.12,8.07,24.69,4.73,7.71,9.77,15.24,14.4,23.02,2.36,3.96,4.13,8.28,6.16,12.44-7.76,2.07-15.39-.15-23.04-.86-6.77-.63-13.47-1.89-20.88-2.88-1.94-.63-3.2-1.24-5.08-2.19Z"/>
    <path class="cls-31" d="M1059,1352.77c1.49-2,2.65-4.39,4.51-5.93,11.39-9.42,20.52-20.97,30.24-31.94,8.66-9.78,17.14-19.75,23.93-31.02,2.72-4.52,5.8-8.83,9.62-13.83,3.86-1.26,3.94-1.63,1.68-4.21,5.96-7.18,11.66-14.6,17.97-21.47,5.5-5.99,16.42-6.4,23.28-1.35,9.03,6.65,17.9,13.5,26.89,20.21,2.48,1.86,5.1,3.54,7.67,5.28,1.29.87,3.3,1.38,3.82,2.56,2.23,5.02,7.36,5.33,12.01,7.86.7.31.8.29.83.86.72,1.46,1.4,2.37,2.39,3.87,3.89,3.56,7.41,6.59,11.05,9.46,24.47,19.3,49.02,38.51,73.43,57.9,4.62,3.67,8.91,7.83,12.99,12.1,6.32,6.63,7.67,14.15,2.68,22.21-4.09,6.61-8.35,13.12-12.53,19.67-3.78,3.23-7.75,6.26-11.3,9.73-21.21,20.76-46.19,35.18-74.32,44.28-3.54,1.14-7.32,1.52-11.62,1.57-.59-7.58-.39-14.49-.56-21.38-.3-11.99-1.89-23.91-6.98-34.8-5.79-12.39-9.46-25.09-10.34-38.74-.36-5.58-1.28-11.39-7.14-14.88-.22-2.43-.61-4.3-1.03-6.8-.1-5.17-.18-9.7.03-14.91,5.16-5.37,5.55-12.11,8.48-18.39.58-1.07,1.01-1.61,1-2.13-.02-.77-.35-1.53-.56-2.29-.75.62-1.8,1.1-2.14,1.9-.27.62.32,1.63.09,3.17-3.08,5.21-5.72,9.72-8.19,13.94-5.35-.63-9.91-1.17-15.25-2-8.8-2.89-16.82-5.53-24.86-8.07-9.37-2.97-18.92-5.72-28.17-.21-5.07,3.02-9.84,6.73-14.17,10.75-8.49,7.87-16.64,16.12-24.81,24.33-4.34,4.37-9.23,6.38-15.32,4.54-1.79-.54-3.54-1.2-5.31-1.81Z"/>
    <path class="cls-71" d="M1058.38,1353.05c2.39.32,4.14.99,5.93,1.53,6.09,1.84,10.97-.17,15.32-4.54,8.17-8.21,16.32-16.46,24.81-24.33,4.33-4.02,9.1-7.73,14.17-10.75,9.25-5.51,18.8-2.76,28.17.21,8.04,2.55,16.05,5.18,25.48,8.38,6.15,2.46,10.91,4.32,15.66,6.18.08,4.53.16,9.07-.14,14.99-2.46,5.58-4.55,9.76-6.63,13.95-1.07,2.16-1.22,4.18.67,6.53-.89,1.88-1.26,3.15-2.03,4.1-6.03,7.48-8.82,16.38-10.99,25.47-2.1,8.8-3.83,17.7-5.6,26.58-2.45,12.28-5.66,24.32-11.03,35.69-13.67-6.9-27.71-13.17-40.92-20.86-13.47-7.84-25.67-17.68-36.92-28.57-6.5-6.29-13.35-12.33-19.11-19.25-10.98-13.2-9.96-23.12,3.18-35.31Z"/>
    <path class="cls-72" d="M1152.83,1457.43c4.7-11.76,7.91-23.79,10.36-36.07,1.77-8.88,3.5-17.78,5.6-26.58,2.17-9.09,4.96-17.99,10.99-25.47.77-.95,1.13-2.22,2.4-4.82,2.75-5.37,4.8-9.26,6.84-13.16,6.04,2.92,6.95,8.73,7.31,14.31.88,13.65,4.55,26.35,10.34,38.74,5.09,10.89,6.68,22.81,6.98,34.8.17,6.9-.03,13.8-.07,21.39-16.2,5.01-32.43,4.63-48.64.94-3.89-.89-7.63-2.45-12.11-4.09Z"/>
    <path class="cls-48" d="M1312.08,1405.34c3.55-6.89,7.81-13.4,11.9-20.01,4.99-8.06,3.64-15.58-2.68-22.21-4.08-4.28-8.37-8.43-12.99-12.1-24.4-19.39-48.95-38.6-73.43-57.9-3.64-2.87-7.16-5.9-11.03-10.06-1.01-2.08-1.73-2.95-2.45-3.83,0,0-.09.01-.14,0-1.78-5.87-5.97-10.04-10.02-14.25-4.14-4.31-6.45-9.02-3.99-15.72,38.5,29.48,76.78,59.62,115.01,89.8,3.18,2.51,6.18,5.28,9.18,8.01,16.94,15.4,17.45,40.52,1.62,57.71-3.77-1.45-7.06-.79-10.42.38-3.24,1.13-6.52,2.5-10.58.19Z"/>
    <path class="cls-9" d="M1128.65,1266.38c2.59,2.03,2.51,2.4-.95,2.94-.13-.88.25-1.64.95-2.94Z"/>
    <path class="cls-11" d="M1241.69,1156.35c.02.07-.69.35-.69.35,0,0,.22-.49.42-.52.2-.03.25.1.27.17Z"/>
    <path class="cls-42" d="M1503.06,642.68c3.09,2.01,6.18,4.02,9.95,6.47,1.53-1.92,3.02-3.73,4.43-5.6,1.31-1.73,2.94-2.13,5.55-1.21-3.62,7.46-7.76,14.74-12.17,21.85-1.95,3.14-4.43,5.95-7.08,9.6-4.34,5.09-8.31,9.46-12.2,13.89-16.33,18.64-33.99,35.88-52.94,51.88-18.29,15.43-38.13,28.46-58.96,40.05-22.8,12.68-46.82,22.47-72.65,29.32.24-5.51,1.1-11.06,2.2-17.69.25-1.09.69-1.86,1.31-1.86,7.06-2.38,13.47-4.86,19.96-7.13,23.84-8.33,45.77-20.47,66.68-34.34,24.34-16.14,46.54-34.94,66.67-56.18,14.47-15.26,27.54-31.59,39.24-49.03Z"/>
    <path class="cls-42" d="M1528.49,633.49c-3.36-.77-4.23-2.79-3.02-6.08,2.74-7.48,4.95-15.15,7.77-22.6,1.16-3.06,3.34-5.74,5.75-8.87,3,6.19,2.63,12.42-.68,18.54-3.25,6.02-6.25,12.17-9.82,19.01Z"/>
    <path class="cls-20" d="M262.99,986.03c-4.6-3.11-9.19-6.23-9.47-13.49,6.73-5.51,10.17-11.5,11.33-19.06,1.28-8.35,2.92-16.66,4.57-24.95,5.84-29.51,13.12-58.58,24.24-86.65,3.43-8.65,5.5-17.96,7.19-27.15,1.46-7.99-3.98-16.62-11.43-19.75-4.6-1.93-9.39-3.51-14.2-4.85-15.38-4.28-30.86-8.22-46.2-12.61-9.61-2.75-19.06-6.07-28.58-9.13-4.14-5.07-3.07-10.83-1.92-17.19,11.7,2.37,23.12,5.3,34.5,8.39,16.79,4.56,33.54,9.24,51.01,13.74,5.74,2.39,10.75,4.96,15.81,7.41,12.62,6.09,17.93,16.85,18.98,30.11.42,5.27-.03,10.5-1.86,15.69-3.94,11.15-7.39,22.47-11.65,35.17-2.17,6.17-4.06,10.81-5.24,15.63-4.6,18.75-9.07,37.54-13.37,56.36-1.94,8.5-2.79,17.28-5.16,25.65-3.07,10.86-7.29,21.34-18.56,26.69Z"/>
    <path class="cls-69" d="M200.19,768.73c9.76,2.71,19.21,6.03,28.82,8.78,15.35,4.39,30.82,8.33,46.2,12.61,4.81,1.34,9.6,2.92,14.2,4.85,7.46,3.13,12.9,11.76,11.43,19.75-1.68,9.19-3.76,18.5-7.19,27.15-11.13,28.07-18.4,57.14-24.24,86.65-1.64,8.29-3.28,16.6-4.57,24.95-1.16,7.57-4.59,13.56-11.35,18.41-1.6.48-2.65.54-4.24.56-2.56-4.18-4.33-8.5-6.69-12.46-4.63-7.77-9.67-15.3-14.4-23.02-4.64-7.57-7.68-15.8-8.07-24.69-.6-13.73-7.52-22.67-20.61-28.24-3.74-6.07-1.47-12.03-1.23-17.77,1.19-28.61,1.61-57.21.44-85.83-.13-3.09.24-6.21.57-9.97.19-.66.67-1.38.91-1.73Z"/>
    <path class="cls-15" d="M563.01,159.6c6.1-11.76,10.86-27.71,19.41-38.3,9.06-9.18,18.91-13.69,28.58-9.44.34.15,5.37,1.18,5.73,1.26,8.71,1.79,15.11.83,23.4,6.78,10.25,4.96,33.98,42.19,36.8,52.96-33.53.83-19.01-10.11-44.12-34.01-10.21-11.99-32.28-19.73-40.45-1.62-4.54,8.21-7.95,17.83-13.46,25.92-5.08-1.1-10.17-2.2-15.91-3.54Z"/>
    <path class="cls-1" d="M844.63,1226.83c-.57-4.29-.99-8.6-1.75-12.86-3.9-21.85-7.75-43.71-11.89-65.51-1.86-9.78.05-17.92,8.27-24.11,8.48-6.38,16.86-12.92,25.38-19.25,24.12-17.92,48.32-35.73,72.42-53.68,6.52-4.86,12.76-10.08,19.18-15.07,5.28-4.11,10.8-7.62,18.68-5.45,3.41,1.69,6.12,3.27,8.91,4.69,48.6,24.73,97.21,49.44,145.82,74.15,1.96.99,3.94,1.94,5.85,3.02,6.74,3.84,9.25,9.52,7.62,17.35-2.15,10.32-7.66,19.08-13.1,27.86-2.14,3.44-4.21,6.93-6.61,11.17-.51,1.02-.72,1.26-1.94,1.53-5.25-2.84-9.49-5.7-13.44-9.21.87-1.92,1.45-3.2,2.49-5.23,2.9-5.47,5.58-10.08,7.73-14.94,2.08-4.7,6.21-8.73,5.43-14.76-1.89-1.17-3.66-2.45-5.58-3.43-46.54-23.7-93.16-47.25-139.59-71.17-6.12-3.16-10.59-2.42-15.09,2.01-1.54,1.52-2.87,3.26-4.89,5.08-5.06,3.09-9.69,5.77-13.95,8.95-10.31,7.69-20.37,15.71-30.67,23.4-19.11,14.27-38.33,28.4-57.49,42.62-2.73,2.03-5.37,4.19-7.55,5.89-.14,1.22-.25,1.54-.2,1.84,5.47,31.5,10.88,63.01,16.5,94.47.98,5.49,2.86,10.81,4.29,16.8-.13,4.33-2.64,5.17-5.67,5.01-3.78-.2-6.43,1.2-8.27,4.54-.52.95-1.87,1.45-3.1,1.59-1.01-4.78-1.66-9.02-2.54-13.21-1.68-8.05-3.5-16.07-5.26-24.11Z"/>
    <path class="cls-54" d="M1309.88,789.36s-.44.78-.66,1.17c-6.31,1.78-12.38,3.25-18.5,4.52-4.89,1.01-9.81,2.06-14.77,2.59-12.16,1.28-19.08-4.73-23.45-14.78-1.23-2.83-1.83-5.98-2.36-9.05-3.5-20.06-7.99-39.9-14.49-59.21-6.9-20.47-14.17-40.82-21.41-61.17-2.41-6.77-5.07-13.47-7.96-20.06-4.54-10.33,2.63-24.62,13.51-26.85,8.57-1.76,17.1-3.87,25.76-5,43.8-5.7,87.63-11.13,131.46-16.63,1.23-.15,2.49-.03,4.04.84-.16,2.02-.8,3.13-1.08,4.33-3.14,13.62-6.17,27.26-9.35,40.88-1.48,6.34-3.23,12.63-5.36,19.17-2.08,4.53-3.95,8.75-5.15,13.15-1.16,4.27-3.01,7.94-5.71,11.46-3.74,4.87-7.07,10.09-10.26,15.35-1.22,2.01-1.58,4.54-2.7,7.71-.88,2.01-1.33,3.18-1.93,4.28-6.92,12.67-12.8,25.66-14.67,40.24-.58,4.56-2.44,9.03-4.18,13.36-4.42,10.98-9.05,21.87-10.77,33.71Z"/>
    <path class="cls-6" d="M1365.75,649.87c1.63-6.31,3.37-12.59,4.86-18.94,3.18-13.61,6.21-27.26,9.35-40.88.28-1.2.91-2.31,1.71-4.17.33-.7.75-1.42.96-1.77,16.03-1.72,31.85-3.11,47.68-4.45,20.18-1.71,40.38-2.81,60.63-2.06,3.1.12,6.19.66,9.66,1.74-.58,9.06-1.68,17.35-2.44,25.68-.93,10.19-.92,20.55-6.71,30.08-8.39,6.48-16.2,12.69-23.93,19-17.88,14.6-36.05,28.84-52.75,44.84-8.75,8.38-16.88,7.53-23-3.02-5.1-8.8-11.81-15.17-21.18-19.84-2.62-2.4-4.99-4.22-7.72-6.33.97-6.72,1.92-13.31,2.88-19.89Z"/>
    <path class="cls-57" d="M1170.98,763.28c1.68,6.56,3.35,13.12,5.04,19.67.54,2.09,1.12,4.16,2,6.77.83,4.55,1.21,8.6,1.88,12.61,5.71,34.11,8.42,68.42,7,103-1.4,33.92-6.11,67.36-14.64,100.25-1.57,6.06-3.32,12.13-4.23,18.3-1.62,11.03-7.28,20.58-10.61,30.97-.15.48-.94.76-2.13,1.66-2.12-.87-4.75-1.73-7.18-2.96-45.04-22.85-90.05-45.76-135.1-68.6-4.06-2.06-7.87-4.08-8.07-10.6.17-4.2.37-7.16,1.24-10.45,4.05-6.31,7.25-12.39,10.84-18.24,2.77-4.51,5.82-8.89,9.14-13.01,3.32-4.11,8.26-5.56,13.26-6.48,4.03-.74,6.1,2.52,8.83,4.52,5.12,3.76,10.61,3.76,15.87.47,7.06-4.41,12.75-10.14,15.86-18.09,4.1-10.47,5.62-21.14,2.56-32.18-.83-3.01-1.59-6.05-2.05-9.88,4.66-10.81,8.98-20.81,13.71-31.58,5.3-11.28,11.09-21.18,18.91-29.88,3.51-3.91,6.34-8.48,9.17-12.95,5.68-9,11.75-17.54,20.29-24.22,8.45-6.59,17.34-11.01,28.4-9.11Z"/>
    <path class="cls-78" d="M1005.5,964.23c-.2,2.96-.4,5.93-.8,9.5-1.82,2.39-3.75,3.98-4.98,6-2.09,3.44-3.74,7.15-5.96,11.51-5.62-4.13-6.8-10.57-6.73-17.22.39-35.35.92-70.7,1.44-106.05.22-14.69.52-29.39.62-44.68,2.55-9.22,8.9-14.53,16.28-19.05,30.4-18.6,60.73-37.31,91.14-55.89,3.71-2.27,7.76-3.98,12.38-5.35.13,6.84-.48,13.07-1.43,19.74-1.24,1.15-2.12,1.85-3.61,2.71-30.1,18.26-59.5,36.5-89.14,54.35-5.58,3.36-7.77,7.43-7.68,13.66.16,12.17-.04,24.34-.16,37.15-.5,31.64-.93,62.63-1.36,93.62Z"/>
    <path class="cls-22" d="M1370.85,676.66c9.12,4.09,15.83,10.46,20.93,19.26,6.12,10.56,14.25,11.4,23,3.02,16.7-16,34.87-30.24,52.75-44.84,7.73-6.31,15.55-12.52,24.59-18.95,6.03-.54,7.81,4.32,11.57,5.71-.11.3-.22.6-.48,1.35-11.85,17.9-24.92,34.22-39.39,49.49-20.14,21.24-42.34,40.04-66.67,56.18-20.91,13.87-42.84,26.01-66.68,34.34-6.49,2.27-12.9,4.75-19.96,7.13,1.1-11.84,5.74-22.74,10.15-33.72,1.74-4.33,3.6-8.8,4.18-13.36,1.86-14.58,7.75-27.57,14.67-40.24.6-1.1,1.05-2.27,2.25-4.85,5.15-7.34,9.57-13.28,14.13-19.1,4.47-5.69,5.1-5.8,11.66-3.11,1.14.47,2.21,1.11,3.31,1.68Z"/>
    <path class="cls-4" d="M1504.11,640.16c-4.18-.68-5.96-5.53-11.38-5.23,4.52-9.37,4.51-19.72,5.44-29.91.76-8.33,1.86-16.63,3.1-25.58,3.96,1.11,7.73,2.67,11.28,4.65,8.38,4.68,11.35,11.84,9.36,21.36-1.76,8.43-5.8,15.8-10.29,22.98-2.31,3.7-4.71,7.34-7.5,11.73Z"/>
    <path class="cls-19" d="M1104.45,765.3c.88-.71,1.77-1.41,3.36-3.04,1.42-1.94,2.13-2.94,2.84-3.95,3.09.94,5.38-.73,7.79-2.25,12.71-8,25.45-15.95,38.2-23.88,1.02-.64,2.22-1,3.68-1.64,4.87,3.98,5.09,9.95,6.78,15.07,1.75,5.32,2.61,10.93,3.86,17.05-11.06-1.28-19.95,3.14-28.4,9.73-8.55,6.67-14.62,15.22-20.29,24.22-2.82,4.47-5.65,9.04-9.17,12.95-7.82,8.71-13.61,18.6-19.08,29.22-.06-2.63.04-5.54,1.05-8.08,1.82-4.56,1.99-8.83.55-13.59-.85-2.81-.58-6.19.01-9.15,1.22-6.08,3.13-12.02,4.52-18.06,1.87-8.11,5.32-15.96,4.28-24.58Z"/>
    <path class="cls-29" d="M1110.86,757.53c-.91,1.78-1.62,2.79-2.69,4.28.24-5.74.84-11.97,1.33-18.91.33-1.45.77-2.21,1.52-3.55,3.13,5.45,3.07,11.45-.16,18.17Z"/>
    <path class="cls-14" d="M1016.24,348.46c6.98-2.81,14.36-2.11,21.3-.99,9.2,1.48,18.63,3.51,27.06,7.31,8.43,3.79,16.31,9.44,22.6,16.49,10.14,11.36,18.03,24.12,21.26,39.25,1.31,6.11,2.29,12.32,2.98,18.53.34,3.05-.17,6.24-.57,9.33-1.87,14.44-19.12,27-35.62,13.63-3.89-3.15-7.48-6.71-11.54-9.6-16.83-12-33.91-23.58-54.02-29.63-.89-.27-1.71-.78-2.97-2.22,1.1-9.02,3.46-16.96,3.94-25,.75-12.58,2.73-24.87,5.57-37.08Z"/>
    <path class="cls-75" d="M1015.6,348.45c-2.2,12.23-4.18,24.52-4.93,37.1-.48,8.05-2.84,15.98-4.66,24.63-7.58-1.12-14.96-2.58-22.09-4.84-4.08-1.29-8.29-3.24-11.48-6-7.91-6.84-8.67-20.71-1.76-28.76,2.78-3.24,6.2-6.16,9.84-8.41,5.83-3.59,11.9-6.98,18.23-9.55,5.13-2.08,10.79-2.85,16.85-4.18Z"/>
    <path class="cls-50" d="M886.51,470.41c7.16-.12,14.36-.74,21.48-.27,22.16,1.47,44.13,4.4,65.64,10.21,13.94,3.77,27.38,8.64,39.46,18.27,2.74,2.2,4.82,4.03,7.23,6.91.72,3.5.76,6.05,1.52,8.37,6.38,19.41,6.84,39.4,6.23,59.53-.41,13.79-1.31,27.62-.66,41.37.44,9.14-.52,17.4-5.07,25.31-1.33,2.31-3.33,4.74-1.51,8.12,4.47,1.91,8.32-.63,12.25-2.23,8.98-3.65,17.98-7.26,26.81-11.24,6.77-3.05,14.4-4.73,19.78-11.09,1.05-.31,1.62-.6,2.15-.88-.04,0-.09.06.57-.02,5.23-3.05,9.51-1.78,13.84,1.42,3.7,7.05,5.4,13.88,4.82,21.28-.25,3.1.06,6.25-.12,9.36-.44,7.41,1.52,14.18,5.12,20.56-.43.69-.87,1.38-1.62,2.59-11.62,7.17-22.99,13.72-34.22,20.5-24.89,15.05-49.7,30.22-74.53,45.36-6.94,4.23-13.95,8.37-20.74,12.84-3.87,2.54-7.34,2.57-11.35.39-7.42-4.04-15.01-7.77-23.01-12.7-.27-2.91.01-4.74.11-6.59.38-6.88.53-13.88,4.08-20.02,8.27-14.3,8.93-30.04,7.38-45.62-1.44-14.55-4.88-28.93-7.93-43.27-1.29-6.09-3.39-12.11-5.88-17.83-6.75-15.44-14.91-30.23-20.61-46.18-5.68-15.87-11.97-31.52-18.05-47.25-1.57-4.07-3.53-8-4.97-12.12-3.01-8.56-6.05-17.14-8.52-25.86-.8-2.82.16-6.14.31-9.23Z"/>
    <path class="cls-27" d="M1079.21,623.71c-4.91,6.34-12.53,8.02-19.3,11.06-8.83,3.98-17.84,7.58-26.81,11.24-3.93,1.6-7.78,4.14-12.25,2.23-1.83-3.38.18-5.81,1.51-8.12,4.55-7.91,5.51-16.17,5.07-25.31-.66-13.75.24-27.58.66-41.37.6-20.13.15-40.12-6.23-59.53-.76-2.32-.8-4.87-.99-7.93,3.37,1.89,6.78,4.16,9.69,6.95,23.97,23.02,45.87,47.76,63.99,75.77,12.75,19.71,24.62,39.89,35.22,60.81,1.38,2.73,2.36,5.67,3.75,9.07-7.99,7.31-17.54,11.33-26.83,16.74-4.22-6.29-6.17-13.07-5.73-20.47.18-3.11-.12-6.25.12-9.36.59-7.4-1.11-14.24-4.87-21.86-1.17-3.08-2.15-4.97-3.33-7.23.81-1.59,1.73-3.4,2.65-5.21-5.36,3.16-10.56,6.29-13.76,11.69,0,0,.05-.05-.4-.04-1.01.3-1.58.6-2.15.89Z"/>
    <path class="cls-41" d="M885.86,470.25c.5,3.25-.45,6.56.35,9.39,2.47,8.73,5.51,17.3,8.52,25.86,1.44,4.11,3.4,8.04,4.97,12.12,6.08,15.73,12.37,31.38,18.05,47.25,5.7,15.94,13.87,30.73,20.61,46.18,2.5,5.72,4.59,11.74,5.88,17.83,3.05,14.35,6.49,28.73,7.93,43.27,1.55,15.58.89,31.32-7.38,45.62-3.55,6.14-3.7,13.14-4.08,20.02-.1,1.84-.38,3.68-.86,6.13-10.44-4.44-20.61-9.5-31.59-14.91-.81-.35-.65-.51-.24-1.31,6.13-9.71,6.38-19.97,6.2-29.85-.44-24.16-3.88-47.94-12.41-70.77-2.52-6.74-4.06-13.91-7.18-20.33-7.08-14.6-14.8-28.91-22.39-43.26-7.36-13.92-13.02-28.34-14.77-44.16-1.03-9.29-4.59-17.5-12.32-23.41-7.66-5.85-11.49-13.81-12.59-23.23,17.46-2.57,35.01-3.37,53.29-2.44Z"/>
    <path class="cls-58" d="M942.45,996.94c-3.67,3.42-6.94,6.35-10.46,8.95-24.67,18.31-49.46,36.45-74.04,54.87-10.52,7.89-20.85,16.06-30.84,24.6-12.9,11.03-26.78,12.78-41.85,5.54-10.46-5.02-20.7-10.49-31.04-15.75-22.92-11.66-45.84-23.32-70.32-35.77-3.23-1.65-4.9-2.52-6.58-3.37-13.97-7.1-27.96-14.16-41.91-21.29-11.91-6.09-18.88-15.2-17.77-29.24.25-3.12.22-6.26.24-9.39.06-14.68.1-29.36.14-44.05.33-.72.65-1.44,1.79-3.06,3.87-2.83,6.96-4.7,9.98-6.7,2.03-1.35,3.95-2.87,6.67-1.32-.3,21.02-.48,41.38-1.06,61.73-.22,7.81,2.59,12.63,9.81,16.26,49.31,24.76,98.51,49.74,147.54,75.04,8.51,4.39,14.98,3.61,22.28-2.27,14.87-11.98,30.15-23.47,45.45-34.93,20.82-15.59,41.73-31.07,62.79-46.33,5.07-3.68,7.58-7.76,7.16-14.16-.34-5.26.46-10.59.76-15.88,6.28,1.82,8.68,4.5,9.17,10.66.39,4.92.35,9.89.89,14.79.22,2,1.47,3.89,2.78,6.23-.08,1.66-.69,2.93-1.58,4.84Z"/>
    <path class="cls-8" d="M657.69,172.4c6.33.77,12.65,1.54,19.66,2.14,1.76.44,2.85,1.05,4.47,1.96,4.5,7.37,8.45,14.45,12.46,21.51,15.77,27.76,31.63,55.47,47.31,83.29,5.53,9.81,10.61,19.88,16.03,30.45-2.67,5.57-6.93,8.71-13.43,10.07-6.3-9.67-11.64-18.87-16.6-28.27-17.84-33.8-36.95-66.87-57.03-99.39-4.42-7.16-8.59-14.49-12.87-21.74Z"/>
    <path class="cls-23" d="M832.15,472.49c1.51,9.63,5.34,17.59,13,23.44,7.73,5.91,11.29,14.12,12.32,23.41,1.76,15.82,7.42,30.24,14.77,44.16,7.59,14.36,15.3,28.66,22.39,43.26,3.12,6.43,4.66,13.6,7.18,20.33,8.53,22.83,11.97,46.6,12.41,70.77.18,9.87-.08,20.13-6.13,29.76-11.84-5.04-23.37-10.75-34.85-16.56-22.41-11.34-44.69-22.93-67.24-34-7.07-3.47-10.22-8.39-10.73-16.08-1.95-29.09-4.14-58.17-6.4-87.24-1.82-23.44-4.03-46.86-5.75-70.31-.57-7.73-2.25-15.51-.56-23.63,7.67-3.36,15.92-3.33,23.89-4.52,7.74-1.16,15.54-2,23.9-3.22.59-.25,1.39.21,1.8.42Z"/>
    <path class="cls-59" d="M475.67,655.25c2.61-2.82,5.34-4.95,7.47-7.57,19.21-23.69,41.23-44.42,64.99-63.5,18.86-15.13,38.59-28.83,60.69-40.53,3.07,3.13,1.63,6.24,1.17,9.23-1.05,6.8-2.42,13.56-3.61,20.34-3.56,20.26,1.07,39.01,10.29,57.03,7.98,15.59,19.58,28.23,31.73,40.51,3.62,3.66,7.62,6.13,12.73,7.45,9.98,2.58,18.42,7.67,23.78,17,1.53,2.67,3.66,4.99,5.51,7.47-.42.72-.83,1.43-1.56,2.68-1.17.91-2.14,1.12-2.86,1.67-18.74,14.06-37.44,28.17-56.18,42.24-8.75,6.57-17.63,12.95-26.28,19.64-3.35,2.59-6.75,3.05-10.52,1.75-2.35-.81-4.65-1.82-6.88-2.93-8.67-4.34-17.29-8.76-26.73-13.52-.79-.38-1.55-.87-2.04-1.53-.67-1.21-.93-1.74-1.31-2.84-1.38-6.63-4.76-11.41-9-15.71-11.44-11.56-22.89-23.12-34.26-34.76-11.58-11.85-22.8-24-32.12-37.79-1.34-1.98-3.62-3.33-5.47-4.97.11-.3.21-.61.48-1.37Z"/>
    <path class="cls-23" d="M691.01,702.5c-2.46-2.31-4.59-4.63-6.12-7.3-5.36-9.33-13.8-14.42-23.78-17-5.11-1.32-9.1-3.78-12.73-7.45-12.14-12.29-23.75-24.93-31.73-40.51-9.22-18.02-13.85-36.76-10.29-57.03,1.19-6.78,2.57-13.53,3.61-20.34.46-2.99,1.9-6.1-.61-9.54,1.53-1.78,3.55-3.11,5.95-4.91,9.11-4.64,17.76-8.98,26.58-12.94,12.26-5.51,24.61-10.82,36.99-16.04,6.91-2.92,13.95-5.55,20.98-8.17,1.99-.74,4.17-1,6.95-1.63.61,2.33,1.44,4.29,1.6,6.31,3.91,48.36,7.76,96.72,11.59,145.08.57,7.18,1,14.36,1.58,21.54.32,3.96-.27,7.3-3.82,9.91-8.82,6.49-17.46,13.21-26.78,20.02Z"/>
    <path class="cls-44" d="M657.18,172.12c4.8,7.53,8.96,14.86,13.39,22.02,20.08,32.52,39.19,65.59,57.03,99.39,4.96,9.4,10.3,18.6,15.95,28.3.49.4.2,1.26-.31,2.31-1.53,2.23-2.42,3.54-3.57,4.56-9.61,8.48-18.66,17.37-26.12,27.96-4.99,7.09-10.77,13.89-17.26,19.6-11.47,10.09-23.77,19.23-35.68,28.81-4.86,3.91-9.92,7.65-14.37,11.99-3.29,3.21-6.39,6.95-8.44,11.03-3.2,6.36-5.45,13.21-8.1,19.85,0,0-.43.83-.65,1.24-4.8,2.36-9.43,4.2-13.94,6.29-12.27,5.69-23.58,2.09-30.39-9.81-1.09-1.9-2.28-3.79-3.02-5.84-4.97-13.53-10.52-26.89-14.56-40.69-7.23-24.72-11.07-50.08-12.62-75.84-1.88-31.2,1.08-62.03,6.3-92.66,3.47-20.37,8.83-40.34,17.01-59.44.73-1.7.94-3.61,1.42-6.21.45-1.31.87-1.83,2.28-2.58,3.41.27,5.81.93,8.26,1.21,12.66,1.42,25.34,2.73,38,4.09,8.95.97,17.9,1.96,26.85,2.94.68.4,1.35.8,2.55,1.47Z"/>
    <path class="cls-63" d="M636.44,920.3c-2.68-.89-4.6.64-6.63,1.98-3.01,2-6.11,3.87-9.73,6.16-.76-2.73-1.16-5.82-1.14-8.91.12-20.57.27-41.14.54-61.71.1-7.47.67-14.93.85-22.4.12-5.29,3.08-9.38,5.72-14.52,7.73-5.51,15.3-9.97,22.32-15.16,18.15-13.41,36.05-27.15,54.62-41.11,3.89,2.64,3.41,6.93,4.1,10.74.22,1.2-1.1,2.69-1.75,4.03-.77,1.58-1.57,3.15-2.59,5.87-11.23,10.63-23.5,18.68-32.78,30.1-.35.43-1.1.51-2.17.94-1.24.95-1.97,1.71-2.69,2.42.02-.06.12.01-.51-.08-4.74.36-6.94,3.04-9.16,6.61-6.18,2.96-11.63,5.88-16.79,8.65-.28,2.07-.56,3.29-.59,4.51-.47,23.2-.92,46.4-1.31,69.6-.04,2.16.41,4.34.45,7.06-.38,2.11-.57,3.66-.76,5.21Z"/>
    <path class="cls-61" d="M630.31,447.88c2.03-6.59,4.27-13.43,7.48-19.79,2.05-4.07,5.15-7.82,8.44-11.03,4.45-4.34,9.5-8.08,14.37-11.99,11.92-9.58,24.22-18.72,35.68-28.81,6.49-5.71,12.27-12.51,17.26-19.6,7.45-10.59,16.51-19.48,26.12-27.96,1.15-1.02,2.05-2.33,3.42-4.13,2.51,3.18,4.63,7.01,6.82,10.79,5.5,9.5,11.18,18.89,16.48,28.5,2.56,4.63,5.16,9.46,6.45,14.52,3.34,13.09-3.22,24.62-16.11,28.73-6.55,2.09-13.38,3.27-20.06,4.95-21.25,5.36-42.67,10.1-62.88,19.01-9.73,4.29-19.89,7.62-29.83,11.45-4.37,1.68-8.68,3.53-13.64,5.36Z"/>
    <path class="cls-23" d="M668.3,816.13c.57-.25,1.33-.33,1.67-.76,9.28-11.42,21.55-19.47,32.97-29.49,3.29-2.38,6.28-4.06,9.02-6.08,14.59-10.73,29.35-21.24,43.55-32.46,5.87-4.64,10.52-4.58,16.88-1.21,21.52,11.41,43.33,22.26,65.45,34.42-2.4,3.95-4.92,7.21-8.09,9.59-19.05,14.28-38.25,28.36-57.38,42.53-2.26,1.67-4.64,3.29-6.55,5.31-3.45,3.64-3.38,7.77.6,10.5,5.12,3.52,10.46,6.76,17.05,7.28,13.4,1.06,26.83,1.93,40.01,4.99,5.77,1.34,11.69,2.14,17.57,2.92,15.71,2.09,31.19.66,46.53-3.11,2.37-.58,5.19-1.01,7.39-.27,7.41,2.5,14.52,5.33,18.68,13.04,3.28,6.07,4.55,12.1,4.1,18.87-.29,4.32-.65,9.01.67,12.99,3.68,11.08,5.16,22.53,7.12,33.92.55,3.21,1.31,6.14,4.43,7.82.28,4.11.55,8.21,1.04,12.9-.09,5.88-.89,11.21-.55,16.47.42,6.4-2.09,10.48-7.16,14.16-21.06,15.26-41.97,30.74-62.79,46.33-15.29,11.45-30.57,22.94-45.45,34.93-7.3,5.88-13.77,6.66-22.28,2.27-49.03-25.3-98.23-50.28-147.54-75.04-7.22-3.63-10.03-8.45-9.81-16.26.58-20.35.76-40.71,1.06-61.73.16-2.22.35-3.77,1.38-5.92,4-2.56,7.21-4.43,10.31-6.48,2.33-1.54,4.44-3.42,6.77-4.96,13.3-8.79,26.66-17.51,39.96-26.3,6.31-4.17,11.63-9.38,16.66-15.05,3.07-3.46,3.15-6.63,1.42-10.26-1.93-4.06-4.93-7.25-9.16-8.96-12.73-5.12-25.5-10.13-38.8-15.5-4.3-3.5-.59-6.02.23-8.8,0,0-.1-.07.41-.15,1.22-.87,1.94-1.67,2.66-2.47Z"/>
    <path class="cls-41" d="M930.12,946.26c-3.28-1-4.04-3.93-4.59-7.14-1.96-11.39-3.45-22.84-7.12-33.92-1.32-3.98-.96-8.67-.67-12.99.45-6.76-.83-12.8-4.1-18.87-4.16-7.71-11.28-10.54-18.68-13.04-2.19-.74-5.02-.32-7.39.27-15.34,3.78-30.82,5.2-46.53,3.11-5.88-.78-11.8-1.58-17.57-2.92-13.18-3.06-26.61-3.93-40.01-4.99-6.59-.52-11.92-3.76-17.05-7.28-3.98-2.73-4.05-6.86-.6-10.5,1.92-2.02,4.29-3.64,6.55-5.31,19.13-14.17,38.34-28.24,57.38-42.53,3.18-2.38,5.7-5.65,8.86-9.16,1.63-.1,2.93.47,4.89,1.24,7.05,3.59,13.38,7.05,19.81,10.33,20.69,10.56,41.35,21.21,62.19,31.48,5.56,2.74,7.72,6.21,7.57,12.45-.76,32.93-1.11,65.88-1.69,98.82-.06,3.43-.71,6.85-1.25,10.95Z"/>
    <path class="cls-74" d="M475.5,776.53c-.17-.05-.34-.09-.51-.16-2.25-.96-4.45-2.03-6.61-3.14-.1.23-.21.47-.32.74-2.07,5.67-3.93,10.59-5.8,15.5.24.21.48.42,1.09.93,11.33,5.75,22.32,11.13,33.25,16.64,18.78,9.48,37.52,19.04,56.27,28.57,2.24,1.14,4.72,2.02,6.58,3.62,1.52,1.3,2.8,3.37,3.27,5.31.57,2.38.24,4.99.2,7.5-.49,33.88-.76,67.77-1.65,101.64-.29,11.24.31,22.46-.11,33.68-.06,1.54-.58,3.06-1.17,5.25,3.78,3.98,6.21,9.2,12.32,11.31,1.58-.2,2.48-.78,4-2.46,1.28-4.73,2.34-8.33,2.48-11.97.32-8.37.09-16.76.26-25.13.11-5.25.55-10.5.63-16.34-.29-4.03-.48-7.46-.42-10.9.44-29.7.81-59.4,1.45-89.1.25-11.83-4.02-19.97-15.18-25.4-27.85-13.55-55.25-28.02-82.97-41.84-2.42-1.21-4.65-2.54-6.68-4.06-.13-.06-.25-.13-.38-.19Z"/>
    <path class="cls-67" d="M601.45,943.02c-.25.63-1.03,1.4-2.35,2.28.24-.64,1.03-1.39,2.35-2.28Z"/>
    <path class="cls-67" d="M604.82,940.55c-.26.6-1.04,1.36-2.36,2.25.25-.61,1.04-1.35,2.36-2.25Z"/>
    <path class="cls-67" d="M607.37,939.65c-.05.29-.59.52-1.6.7.05-.29.59-.52,1.6-.7Z"/>
    <path class="cls-7" d="M461.47,789.1c1.03.58,1.27.79,1.52,2.02-3.79,9.9-7.33,18.89-11.48,27.59-2.97,6.24-5.66,12.39-6.62,19.37-.8,5.81-1.64,11.96-5.61,16.69-5.21,6.2-10.3,12.65-16.37,17.94-8.88,7.74-15.86,16.62-21.06,27.14-7.06,14.3-14.41,28.45-22.23,42.91-2.49,2.17-4.39,4.09-6.57,6.3-2.59-1.32-4.78-2.43-7.47-3.86-.82-.53-1.14-.74-1.48-1.24-.07-.66-.16-1.02-.83-1.83-5.32-5.1-8.56-10.62-10.25-17.09-.78-2.99-1.7-6.03-4.99-8.11-.11-2.39-.1-4.22-.08-6.06,3.25-9.76,6.39-19.56,9.78-29.28,4.51-12.94,9.14-25.85,13.86-38.72,3.65-9.95,7.43-19.84,11.33-29.69,1.49-3.77,3.42-7.38,5.24-11.01,5.04-10.07,10.1-20.14,15.2-30.18,1.4-2.75,2.97-5.4,4.18-7.57,4.67-1.37,7.44,1.14,10.42,2.64,14.27,7.16,28.47,14.44,43.49,22.05Z"/>
    <path class="cls-47" d="M347.37,910.46c.58,2.24.56,4.08.39,7.17-2.18,9.11-4.64,16.88-6.16,24.83-4.82,25.22-7.78,50.64-6.6,76.4.08,1.84-.42,3.7-1.37,5.19-5.75-3.53-10.78-6.7-15.81-9.87,0,0-.65-.4-.96-.63.72-16.37,1.08-32.58,2.94-48.62,2.57-22.26,7.28-44.16,14.81-66.16,4.27,3.29,8.21,7.29,12.75,11.7Z"/>
    <path class="cls-66" d="M474.74,657.23c2.3,1.03,4.58,2.38,5.92,4.36,9.32,13.79,20.55,25.94,32.12,37.79,11.37,11.64,22.82,23.19,34.26,34.76,4.25,4.29,7.62,9.08,8.77,16.05-.2.98-.67,1.66-.67,1.66-31.24-15.84-62.51-31.61-93.67-47.6-4.65-2.39-8.76-5.83-12.56-8.41-1.14-4.01.63-6.36,2.31-8.54,7.62-9.88,15.36-19.65,23.51-30.07Z"/>
    <path class="cls-12" d="M555.6,752.15c-.46-.29.02-.98.25-1.33.57.13.84.65,1.11,1.64-.24.28-.57.13-1.35-.31Z"/>
    <path class="cls-16" d="M551.03,1479.48c1.51-4.33,3.03-8.66,5.32-13.25,2.48,1.07,4.18,2.39,5.87,3.69,0-.02-.04-.05.22.53,1.92,1.76,3.58,2.94,6.01,4.57,8.67,5.2,17.2,7.53,26.36,8.9,8.55,1.28,17.57,3.2,24.99,7.34,9.43,5.26,17.73,12.67,23.48,22.43,3.3,5.6,7.51,10.67,11.31,15.97-3.28,4.91-6.22,10.1-9.91,14.68-14.56,18.04-30.8,34.5-49.26,48.55-16.94,12.9-35.09,23.9-54.88,32-4.33,1.77-8.58,3.75-13.38,5.96-.82.21-1.12.1-1.87-.2-6.36-3.13-9.28-9.04-13.04-13.85-5.93-7.6-10.68-16.13-15.89-24.3-7.71-12.07-12.21-25.39-13.97-39.45-1-8-.35-16.21-.36-24.33,0-1.55.46-3.09.56-4.65,1-14.92-.67-18.18-13.78-25.53-5.45-3.06-11.15-5.69-18.11-9.22-3.35-2.43-5.33-4.15-7.31-5.88,4.11-5.62,1.44-11.59.37-17.18-2.1-11-4.79-21.9-7.68-32.72-2.92-10.9-7.76-21.05-13.62-30.67-2.92-4.79-6.18-9.37-9.26-14.06-6.79-10.34-11.32-21.49-11.99-33.97-.14-2.66-1.03-4.69-3.12-6.47-1.85-1.58-3.26-3.69-5.04-6.2,5.16,2.6,10.43,5.95,15.86,9.01,2.12,1.2,4.58,1.91,6.96,2.53,21.87,5.74,40.43,16.71,54.43,34.68,3.45,4.42,6.4,9.31,9.04,14.28,6.74,12.71,13.23,25.51,18.55,38.95,5.71,14.43,14.12,27.29,29.13,36.43,8.17,4.93,15.32,8.87,22.5,13.26.18,1.05.43,1.6.81,2.26.02.15.21.33.21.33,0,0-.3-.46-.37-.91-.19-1.05-.43-1.6-.58-2.75.62-4.01,1.03-7.38,1.45-10.75Z"/>
    <path class="cls-32" d="M528.98,1635.44c4.07,1.67,7.91,3.9,12.05,6.7-3.52-.41-7.33-1.39-11.94-2.57-.07-.77-.2-2.17-.1-4.12Z"/>
    <path class="cls-32" d="M654.98,1529.82c-4.2-5.46-8.41-10.52-11.71-16.12-5.75-9.76-14.05-17.17-23.48-22.43-7.42-4.14-16.44-6.06-24.99-7.34-9.16-1.38-17.69-3.7-26.57-9.44-2.67-2.19-4.36-3.4-6.05-4.61,0,0,.03.03-.12-.58-3.94-6.64-8.13-12.29-14.82-15.46-4.81-2.32-7.36-6.71-9.87-11.05-10.66-18.45-21.28-36.94-31.85-55.45-5.49-9.62-12.36-17.87-21.09-24.92-5.22-4.22-9.32-10.12-13.02-15.85-3.01-4.67-4.82-10.15-6.92-15.37-5.25-13.06-10.38-26.16-15.52-39.26-3.31-8.45-6.45-16.96-9.82-25.39-2.2-5.51-4.68-10.91-7.39-16.88.01-1.28.38-2.03,1.57-3.8,9.16-9.44,16.97-18.49,25.96-26.17,17.6-15.04,37.31-26.23,61.23-28.56,1.53,3.44,2.55,6.41,3.91,9.22,9.52,19.67,19.49,39.1,27.91,59.34,4.27,10.28,7.3,20.76,8.9,31.39,1.47,9.74,5.45,17.77,10.37,25.73,7.72,12.51,15.65,24.88,23.26,37.45,6.99,11.54,16.13,20.59,29.27,26.35,4.93,2,9.09,4.14,13.52,5.18,6.36,1.49,12.41,3.52,18.8,7.14,9.12,4.87,14.47,11.52,17.16,20.82,3.81,13.14,8.36,26.08,12.63,39.08,1.06,3.21,1.64,6.74,4.72,9.45-1.74,4.81-2.84,9.11-4.87,12.91-9.84,18.43-19.93,36.72-29.92,55.06,0,0-.79-.3-1.19-.45Z"/>
    <path class="cls-32" d="M655.99,1530.91c10.18-18.98,20.27-37.27,30.11-55.7,2.03-3.8,3.13-8.1,5.3-13.68,6.06-12.78,11.67-23.9,16.2-35.66,7.69-19.98,13.66-40.25,16.5-61.47,3.17-23.72,1.04-46.7-7.72-69.17-7.7-19.76-19.83-36.23-35.54-50.07-15.3-13.48-32.11-24.94-50.32-34.23-6.71-3.42-13.48-6.7-19.94-10.69.31-2.75,1.06-5.24.19-6.87-1.86-3.49-3.72-7.35-8.48-8.08-2.77-.42-3.49-2.33-2.14-4.87,6.39,1.68,12.17,3.34,18.65,5.39,8.69,3.84,16.82,7.01,24.63,10.84,4.43,2.17,8.15,5.78,12.54,8.08,11.4,5.98,21.39,13.95,31.31,21.97,11.69,9.46,21.77,20.55,30.98,33.26,5.02,9,10.46,17.13,14.19,25.98,10.15,24.07,12.69,49.4,10.63,75.27-.37,4.66-1.05,9.29-1.91,14.61-3.89,12.99-5.89,25.67-10.2,37.86-6.78,19.2-14.39,38.01-23.06,56.41-1.87,3.97-3.86,7.89-5.79,11.83-5.17,10.02-10.12,20.16-15.56,30.03-5.88,10.66-12.21,21.08-18.41,31.56-.62,1.05-1.67,1.84-3.11,3.25-6.66-2.99-8.03-9.05-9.03-15.85Z"/>
    <path class="cls-26" d="M623.98,1074.08c24.1,12.32,48.19,24.65,73.12,37.27,1.52.78,2.22,1.25,3.26,2.68,1.18,7.75,1.34,14.72,3.03,21.3,2.63,10.22,2.32,19.81-3.57,28.7-7.07-3.8-13.77-6.64-19.6-10.7-11.86-8.26-24.46-14.74-39.02-19.3-8.86-3.68-16.81-7.46-25.13-10.1-15.54-4.93-31.38-8.75-47.66-10.48-21.34-2.27-42.55-2.12-63.49,3.14-5.73,1.44-11.35,3.3-17.65,4.98-8.67,3.36-16.99,6.16-24.71,10.14-17.23,8.88-33.61,19.17-48.42,31.78-5.78,4.92-12.27,7.34-19.94,5.81-.88-.18-1.85.11-2.78.18-7.6-3.65-12.07-10.14-15.39-18.31,5.48-3.3,10.54-5.74,15.7-7.93,17.81-7.57,35.66-15.05,53.48-22.58,11.21-4.74,22.4-9.51,34.2-14.33,2.69-.71,4.84-1.21,6.84-2.05,18.4-7.69,36.76-15.47,55.16-23.16,15.24-6.37,30.55-12.56,45.76-19,4.62-1.95,8.75-2.24,13.36.27,7.67,4.18,15.63,7.82,23.47,11.69Z"/>
    <path class="cls-32" d="M425.19,1227.79c1.85-2.13,3.5-3.55,4.96-5.13,15.11-16.41,32.36-30.02,52.65-39.45,5.9-2.74,12.26-4.48,18.42-6.64,3.52-1.23,7.07-2.39,11.77-3.89,13.49-2.41,25.9-3.42,38.4-2.69,16.58.97,32.75,3.91,48.15,10.41-.74,2.56-.03,4.47,2.74,4.89,4.76.72,6.62,4.59,8.48,8.08.87,1.63.12,4.13-.88,6.98-5.76-.64-10.55-1.98-15.31-3.42-16.76-5.07-33.66-9.71-51.35-9.2-7.71.22-15.38,1.87-23.07,2.87-23.55,2.87-43.27,14.06-60.87,29.1-8.99,7.68-16.8,16.73-25.69,25.6-3.55-3.84-6.55-8.12-10.09-12.81.11-1.63.76-2.85,1.69-4.7Z"/>
    <path class="cls-43" d="M316.83,1020.13c1.47,14.6,2.49,29.28,4.81,43.75,1.35,8.38,3.54,16.62,5.77,24.85,3.34,4.23,6.66,7.22,12.38,9.53,2.63,1.06,5.33,2.04,8.07,2.88.08-.03.17-.05.25-.08,0,0,0,0,0,0,.55-.28,1.13-.58,2.46-1.37,1.97-1.46,3.14-2.39,4.3-3.33,4.83-7.22,9.66-14.45,14.78-22.43-4.44.73-9.25,2.05-13.9,3.78-3.48,1.29-6.65,3.56-11.49,2.45-5.62-16.61-7.83-34.14-9.04-52.48-.1-1.23-.25-1.84-1.37-3.23-5.98-3.95-11.01-7.11-16.22-9.61-.4,2.2-.96,3.78-.81,5.28Z"/>
    <path class="cls-32" d="M443.03,1484.07c2.33,1.11,4.31,2.84,6.85,4.88-2.27.15-5.1,0-8.56-.33.03-1.42.7-2.68,1.71-4.55Z"/>
    <path class="cls-32" d="M437.31,1488.53c.52-.23,1.53-.32,3.05-.26-.51.23-1.53.32-3.05.26Z"/>
    <path class="cls-32" d="M434.96,1489.08c.03-.17.37-.35,1.04-.5-.06.11-.41.27-1.04.5Z"/>
    <path class="cls-32" d="M550.43,1479.74c.19,3.11-.22,6.47-.82,10.48-.18.64-.13.62-.13.62-7.15-3.93-14.31-7.87-21.76-12.35,5.3,2.11,10.89,4.77,16.63,7.5,2.19-2.4,3.83-4.19,6.08-6.25Z"/>
    <path class="cls-32" d="M547.37,1454.46c6.57,2.54,10.75,8.19,14.7,14.85-1.55-.69-3.24-2.01-5.43-3.76-3.37-3.77-6.26-7.12-9.27-11.09Z"/>
    <path class="cls-76" d="M156.77,897.2c-2.23-.87-4.51-2.22-8.02-1.28,3.82-5.87,1.26-12.96,3.35-19.76.52,1.76,1.16,3.49,1.55,5.28,1.09,5.07,2.07,10.16,3.13,15.76Z"/>
    <path class="cls-13" d="M196.83,948.11c.79,1.4.87,2.45.75,4-2.8-1.88-5.4-4.27-8.21-7.25,2.11.57,4.44,1.73,7.47,3.25Z"/>
    <path class="cls-36" d="M147.78,896.05c-.27.47-1,1.12-2.19,1.88.27-.5,1-1.1,2.19-1.88Z"/>
    <path class="cls-45" d="M888.54,1390.16c-9.11-.77-13.86-5.91-15.74-13.94-1.21-5.13-2.06-10.35-3.11-15.52-.49-2.42-1.09-4.82-1.83-8.4-2.35-13.45-4.39-25.76-6.72-38.01-1.46-7.64-3.36-15.18-4.92-23.32.27-2.08.39-3.61,1.15-5.43,5.66-5.71,9.97-11.63,13.35-17.79,1.37,5.77,2.58,10.94,3.52,16.16,4.77,26.46,9.45,52.94,14.25,79.4.42,2.31,1.57,4.48,2.45,6.93,13.58-3.07,25.56-8.44,37.46-13.94,20.6-9.51,38.83-22.77,56.69-36.57,3.44-2.66,6.94-5.23,10.54-7.23,2.59,5.11,5.04,9.6,7.48,14.1-.4.71-.79,1.42-1.46,2.68-6.17,5.18-11.98,9.94-17.98,14.44-19.09,14.34-39.56,26.18-61.74,35.22-10.75,4.38-21.45,8.61-33.4,11.2Z"/>
    <path class="cls-24" d="M1275.65,762.63c-.16,0-.33-.01-.49-.02.11-.02.21-.04.4-.04.08.03.09.05.09.06Z"/>
    <path class="cls-36" d="M1188.2,1329.05c-5.03-1.19-9.79-3.05-15.16-5.21,3.94.23,8.49.77,13.85,1.4,2.47-4.22,5.1-8.72,8.39-13.8.65-.57,1.05-.25,1.05-.25-2.58,5.74-2.97,12.49-8.13,17.85Z"/>
    <path class="cls-35" d="M1189.2,1350.76c-2.22,4.47-4.27,8.37-6.68,12.98-2.59-.88-2.45-2.9-1.38-5.07,2.08-4.19,4.17-8.37,6.65-13.32.79,1.1,1.18,2.97,1.4,5.4Z"/>
    <path class="cls-68" d="M1196.68,1310.66c-.35.54-.75.22-.96.08-.42-.97-1.01-1.98-.74-2.6.35-.79,1.4-1.28,2.14-1.9.2.76.54,1.52.56,2.29.01.53-.41,1.06-1,2.13Z"/>
    <path class="cls-25" d="M1221.44,1279.78c.69.31,1.41,1.18,2.11,2.66-.71-.3-1.39-1.2-2.11-2.66Z"/>
    <path class="cls-52" d="M1003.73,1326.4c-3.06-4.28-5.51-8.77-7.74-14.5,1.25-2.41,2.19-3.67,3.31-4.74,14.71-14.07,28.55-28.95,41.16-44.93,8.5-10.78,16.72-21.79,24.62-33.02,7-9.94,13.5-20.24,20.01-30.52,7.67-12.12,15.11-24.39,22.66-36.6,4.24,2.86,8.48,5.72,13.44,8.94-6.38,15.42-15.54,29.26-24.74,43.06-6.42,9.63-12.76,19.31-19.25,28.88-12.14,17.92-25.54,34.86-40.12,50.84-8.24,9.03-16.99,17.59-25.61,26.27-2.19,2.21-4.74,4.06-7.74,6.3Z"/>
    <path class="cls-18" d="M700.57,1164.43c5.13-9.3,5.44-18.89,2.81-29.11-1.69-6.58-1.85-13.55-2.49-20.96,22.28,10.58,44.33,21.84,66.48,32.91,4.54,2.27,7.15,5.01,8.02,10.44,2.74,16.97,6.22,33.83,9.74,51.9,4.33,22.62,8.43,44.06,12.3,65.54,5.87,32.52,11.57,65.08,17.39,97.61.17.96.83,1.84,1.59,3.46,1.23-1.88,1.89-2.9,2.74-3.31.67,3.21-2.21,6.49,1.74,8.41-.31.8-.41,1.86-.98,2.34-1.9,1.59-3.98,2.97-6.69,3.95-.14-4.05-1.58-6.38-4.86-7.96-8.06-3.88-10.45-11.16-11.13-19.32-.16-1.86.07-3.76.12-5.63.29-10.01,1.13-20.04.78-30.03-.82-23.4-6.81-45.68-16.19-67.07-.48-1.09-1.58-1.91-2.45-3.46-4.67-9.12-8.57-18.11-14-26.06-16.24-23.77-36.64-43.49-61.19-59.75-1.59-1.53-2.67-2.71-3.75-3.89Z"/>
    <path class="cls-60" d="M654.5,170.04c-8.82-.37-17.77-1.37-26.72-2.33-12.67-1.37-25.34-2.68-38-4.09-2.45-.27-4.86-.94-7.97-1.62,3.17-8.03,6.98-15.91,10.91-23.71,5.58-11.07,14.87-13.07,26.1-8.71,5.67,2.21,10.24,6.07,14.34,10.32,8.49,8.79,15.69,18.58,21.34,30.15Z"/>
    <path class="cls-83" d="M1108.03,1161.45c-7.82,12.85-15.26,25.12-22.94,37.24-6.51,10.28-13.01,20.58-20.01,30.52-7.9,11.22-16.12,22.24-24.62,33.02-12.6,15.97-26.45,30.85-41.16,44.93-1.12,1.07-2.07,2.33-3.45,4.13-3.83,3.23-7.33,5.81-10.76,8.46-17.86,13.8-36.09,27.05-56.69,36.57-11.89,5.49-23.87,10.87-37.46,13.94-.88-2.45-2.03-4.62-2.45-6.93-4.81-26.46-9.48-52.94-14.25-79.4-.94-5.22-2.16-10.4-3.22-16.85,1.74-4.86,2.89-9.03,8.8-8.69-2.66-2.46-4.66-4.31-6.81-6.29,1.44-7.14,5.36-12.89,8.7-19.84,10.77-21.14,21.15-41.49,31.49-61.86,1.27-2.51,2.44-5.07,3.51-7.67,5.34-12.95,10.5-25.98,16.01-38.85,2.46-5.74,5.61-11.19,8.99-16.92,1.35-.93,2.15-1.7,2.92-2.46-.03,0-.08.01.45.22,1.62.07,2.72-.06,3.78-.18-.04,0-.11.02.36-.03,1.05-.31,1.63-.56,2.17-.81-.04.01-.11.04.35-.02,1.06-.19,1.61-.43,2.7-1.01,9.97-2.76,18.41-7.39,26.8-12.15,8.89-5.04,14.63-13.17,20.29-20.99,9.77,2.52,12.46,5.47,12.24,13.99-.14,5.59-.91,11.17-1.36,16.76-.53,6.58-.54,13.08,2.93,19.67,1.43,3.75,2.83,6.89,4.48,10.61,3.37-3.25,6.15-5.93,8.93-8.62,0,0-.01,0,.37-.05.88-.17,1.32-.4,2.34-.87,5.88-2.95,11.03-5.97,16.38-8.55,7.79-3.76,12.33-2.64,18.33,3.66,3.88,4.07,7.73,8.22,12.04,11.81,10.1,8.43,20.49,16.53,28.76,26.92.74.93,2.04,1.43,3.08,2.12-.58,1.28-1.17,2.56-2.03,4.48Z"/>
    <path class="cls-17" d="M941.18,1107.11c-2.83,5.58-5.98,11.02-8.44,16.76-5.51,12.87-10.67,25.9-16.01,38.85-1.07,2.6-2.24,5.16-3.51,7.67-10.34,20.37-20.72,40.72-32.14,62.18-4.56,7.35-8.06,13.59-11.56,19.83-1.47-5.4-3.35-10.72-4.33-16.21-5.62-31.47-11.03-62.98-16.5-94.47-.05-.3.06-.62.2-1.84,2.17-1.7,4.81-3.86,7.55-5.89,19.16-14.21,38.38-28.34,57.49-42.62,10.3-7.7,20.36-15.72,30.67-23.4,4.26-3.18,8.89-5.86,14.21-8.26,1.83,4.4.46,7.79-1.27,11.16-3.83,7.43-7.76,14.81-11.29,22.38-1.54,3.29-2.21,6.97-3.6,10.76-.7,1.22-1.07,2.16-1.44,3.1Z"/>
    <path class="cls-34" d="M942.94,1103.73c1.07-3.51,1.74-7.19,3.28-10.48,3.54-7.57,7.46-14.95,11.29-22.38,1.74-3.37,3.11-6.76,1.88-11.34,1.16-2.33,2.49-4.07,4.03-5.59,4.49-4.43,8.96-5.17,15.09-2.01,46.43,23.92,93.05,47.47,139.59,71.17,1.92.98,3.69,2.26,5.58,3.43.77,6.03-3.35,10.06-5.43,14.76-2.14,4.85-4.82,9.47-7.73,14.94-1.5.05-2.8-.44-3.54-1.37-8.27-10.39-18.65-18.48-28.76-26.92-4.3-3.59-8.16-7.74-12.04-11.81-6-6.3-10.54-7.42-18.33-3.66-5.35,2.59-10.5,5.6-16.74,8.64-1.47.38-1.93.58-2.36.84,0,0,0,0-.61.05-5.28,1.85-9.54,1.8-12.83-2.65-3.43-5.98-3.42-12.49-2.89-19.06.45-5.59,1.22-11.16,1.36-16.76.21-8.52-2.47-11.47-12.24-13.99-5.66,7.82-11.41,15.95-20.29,20.99-8.39,4.76-16.83,9.39-27.26,12.19-1.64.39-2.2.64-2.69,1.03,0,0,.07-.02-.37,0-1.02.29-1.59.56-2.16.83,0,0,.07-.02-.42-.22-1.59-.08-2.68.05-3.78.17,0,0,.05,0-.35-.21-.7-.32-.99-.44-1.28-.57Z"/>
    <path class="cls-40" d="M869.46,1253c3.54-6.83,7.04-13.07,11.19-19.64-2.27,5.84-6.19,11.58-7.63,18.73,2.15,1.98,4.15,3.84,6.81,6.29-5.91-.34-7.07,3.83-9.08,8.12-3.42,7.42-7.72,13.33-13.39,19.05-2-6.33-3.36-12.95-4.7-20.21.99-1.34,2.34-1.84,2.86-2.79,1.84-3.35,4.49-4.75,8.27-4.54,3.03.16,5.54-.68,5.67-5.01Z"/>
    <path class="cls-36" d="M1370.59,676.08c-.85.02-1.91-.63-3.06-1.1-6.57-2.69-7.19-2.58-11.66,3.11-4.57,5.82-8.98,11.77-13.78,18.23.44-1.72.8-4.25,2.02-6.26,3.19-5.26,6.52-10.48,10.26-15.35,2.7-3.52,4.55-7.19,5.71-11.46,1.19-4.4,3.07-8.62,5.15-13.15-.45,6.35-1.4,12.94-2.37,19.66,2.73,2.1,5.1,3.93,7.72,6.33Z"/>
    <path class="cls-50" d="M1103.84,765.46c1.65,8.46-1.8,16.31-3.67,24.42-1.39,6.05-3.3,11.99-4.52,18.06-.59,2.96-.86,6.34-.01,9.15,1.44,4.76,1.27,9.03-.55,13.59-1.01,2.54-1.11,5.45-1.45,8.86-4.16,10.66-8.48,20.66-13.62,31.84-12.56,8.26-24.41,15.19-36.03,22.48-9.3,5.83-14.45,4.9-20.14-4.33-.98-1.6-1.79-3.33-2.96-4.77-4.27-5.28-7.06-11.98-13.97-14.78.05-12.17.26-24.34.09-36.5-.08-6.23,2.1-10.3,7.68-13.66,29.64-17.84,59.04-36.09,89.14-54.35Z"/>
    <path class="cls-51" d="M1006.86,870.61c6.97,2.15,9.76,8.86,14.04,14.14,1.17,1.44,1.98,3.18,2.96,4.77,5.69,9.23,10.84,10.17,20.14,4.33,11.62-7.29,23.47-14.22,35.69-21.66,1.27,2.66,2.02,5.69,2.86,8.71,3.06,11.04,1.54,21.71-2.56,32.18-3.11,7.95-8.8,13.68-15.86,18.09-5.26,3.29-10.76,3.29-15.87-.47-2.73-2-4.8-5.27-8.83-4.52-5,.93-9.94,2.37-13.26,6.48-3.32,4.12-6.37,8.5-9.14,13.01-3.59,5.85-6.8,11.93-10.84,18.24-.24-30.67.18-61.66.68-93.29Z"/>
    <path class="cls-82" d="M1082.41,622.79c2.54-5.32,7.74-8.45,13.11-11.61-.92,1.81-1.84,3.62-2.65,5.21,1.18,2.27,2.16,4.15,3.19,6.62-4.14-2.01-8.42-3.28-13.65-.23Z"/>
    <path class="cls-82" d="M1079.69,623.68c.09-.27.65-.56,1.7-.87-.09.27-.65.56-1.7.87Z"/>
    <path class="cls-30" d="M665.56,827.84c12.75,5.06,25.52,10.07,38.25,15.19,4.24,1.7,7.24,4.89,9.16,8.96,1.72,3.63,1.64,6.79-1.42,10.26-5.02,5.67-10.35,10.88-16.66,15.05-13.3,8.79-26.66,17.5-39.96,26.3-2.33,1.54-4.44,3.42-6.77,4.96-3.1,2.05-6.31,3.92-10.12,5.92-.87-2.12-1.32-4.29-1.28-6.46.39-23.2.84-46.4,1.31-69.6.02-1.23.31-2.45.59-4.51,5.16-2.77,10.61-5.69,17.2-8.25,4,.97,6.85,1.57,9.7,2.18Z"/>
    <path class="cls-3" d="M665.01,827.54c-2.3-.3-5.15-.91-8.41-1.92,1.07-3.92,3.27-6.61,8.01-6.97-.19,2.87-3.9,5.38.4,8.89Z"/>
    <path class="cls-3" d="M667.8,816.31c-.22.61-.94,1.41-2.18,2.34.21-.63.95-1.39,2.18-2.34Z"/>
    <path class="cls-2" d="M380.23,942.51c7.22-14.21,14.57-28.37,21.63-42.66,5.19-10.52,12.18-19.39,21.06-27.14,6.06-5.29,11.16-11.74,16.37-17.94,3.97-4.73,4.81-10.88,5.61-16.69.97-6.98,3.65-13.12,6.62-19.37,4.15-8.7,7.69-17.7,11.84-27.29,11.32,4.72,22.31,10.1,33.24,15.62,18.78,9.48,37.52,19.04,56.27,28.57,2.24,1.14,4.72,2.02,6.58,3.62,1.52,1.3,2.8,3.37,3.27,5.31.57,2.38.24,4.99.2,7.5-.49,33.88-.76,67.77-1.65,101.64-.29,11.24.31,22.46-.11,33.68-.06,1.54-.58,3.06-1.79,5.37-5.26,2.52-9.64,4.22-13.98,6.02-14.73,6.1-29.47,12.21-44.18,18.36-13.27,5.55-26.42,11.41-39.8,16.66-5.98,2.35-11.66,6.05-18.22,5.01,2.63-3.1,4.89-5.6,7.34-7.91,1.56-1.47,3.38-2.66,5.61-4.11,1.3-.88,2.09-1.62,3.03-2.37.16-.01.35-.23.35-.23,0,0-.49.31-1,.48-1.3.9-2.07,1.63-3.46,2.18-3.87.65-7.14,1.48-10.31,2.29-6.1-4.24-11.95-8.31-18.19-12.86-2.27-2.67-4.14-4.85-6.24-7.64-.86-17.65-8.26-30.93-22.3-40.62-1.95-1.35-3.47-3.33-5.55-5.63-4.99-3.56-9.61-6.52-14.02-9.33.68-3.98,1.24-7.25,1.8-10.52Z"/>
    <path class="cls-79" d="M442.89,1039.47c6.85.36,12.53-3.35,18.51-5.69,13.39-5.25,26.53-11.11,39.8-16.66,14.71-6.16,29.44-12.26,44.18-18.36,4.34-1.8,8.72-3.5,13.7-5.36,4.68,3.2,7.11,8.42,13.22,10.53-1.12,2.02-2.65,4.29-4.78,5.22-10.89,4.76-21.94,9.15-32.9,13.73-13.27,5.54-26.51,11.16-39.79,16.7-11.83,4.94-23.68,9.85-35.54,14.73-13.31,5.47-26.63,10.9-40.45,16.71-17.41,7.38-34.29,14.43-51.23,21.36-3.73,1.52-7.65,2.58-12.11,3.92,4.2-7.15,9.03-14.38,14.55-22.83,4.04-3.64,2.19-7.61,4.07-10.3,3.15.23,5.73.13,8.71.12.97.11,1.45-.09,1.8-.49-.04.01.03.07.64.28,3.02-.22,5.56-.31,7.82-1.15,5.53-2.04,10.97-4.33,16.37-6.68,8.53-3.72,17-7.57,25.99-11.27,1.61-.5,2.72-1.1,4.4-1.89,1.4-1,2.22-1.82,3.04-2.62,0,.01-.02,0-.02,0Z"/>
    <path class="cls-46" d="M382.44,1063.21c-2.58.1-5.16.2-8.54-.5-5.88-3.81-9.35-8.5-13.35-12.66-7.9-8.23-15.16-17.18-25.26-22.99-.16-.61-.31-1.21-.7-2.23,0-2.26.5-4.13.41-5.96-1.18-25.76,1.78-51.18,6.6-76.4,1.52-7.95,3.98-15.72,6.29-24.28,3.43.82,4.36,3.85,5.13,6.85,1.69,6.47,4.93,11.99,10.25,17.37.62,1.11.72,1.48.85,1.84.32.22.65.43,1.65,1.63,2.6,4.74,5.79,6.99,9.53,8.72,5.88,2.71,11.68,5.58,17.51,8.39,1.72,1.69,3.23,3.67,5.18,5.02,14.04,9.69,21.44,22.97,21.97,41.17-.69,2.3-1.26,3.44-2.24,5.24-3.98,4.71-7.07,8.77-5.69,14.9.49,2.17-.62,4.87-1.47,7.15-2.13,5.74-6.09,10.15-10.79,13.96-5.07,4.11-10.07,8.3-15.1,12.46,0,0-.07-.05-.42-.08-.87,0-1.35.16-1.81.42Z"/>
    <path class="cls-39" d="M392.45,962.36c-5.47-2.2-11.27-5.07-17.14-7.78-3.75-1.73-6.94-3.97-9.04-8.41,2.01.44,4.2,1.56,6.79,2.88,2.18-2.21,4.07-4.14,6.57-6.3.04,3.02-.52,6.29-1.2,10.28,4.41,2.81,9.03,5.77,14.02,9.33Z"/>
    <path class="cls-39" d="M364.11,943.95c-.12-.08-.22-.44-.28-1.1.12.08.21.44.28,1.1Z"/>
    <path class="cls-32" d="M562.43,1470.45c1.44.63,3.13,1.84,5.03,3.59-1.45-.64-3.11-1.83-5.03-3.59Z"/>
    <path class="cls-32" d="M550.22,1493.43l.3.46s-.19-.18-.23-.33c-.04-.15-.07-.13-.07-.13Z"/>
    <path class="cls-32" d="M550.28,1493.41c-.34-.5-.59-1.05-.77-2.11-.03-.46-.08-.43-.1-.43.33.5.57,1.06.76,2.11.06.45.1.43.12.43Z"/>
    <path class="cls-56" d="M520.51,1191.14c7.33-1.54,15-3.19,22.71-3.41,17.69-.51,34.59,4.13,51.35,9.2,4.76,1.44,9.55,2.78,15.02,4.07,7.43,3.24,14.21,6.52,20.92,9.94,18.21,9.29,35.02,20.75,50.32,34.23,15.7,13.84,27.83,30.31,35.54,50.07,8.76,22.47,10.9,45.46,7.72,69.17-2.84,21.22-8.81,41.49-16.5,61.47-4.53,11.76-10.14,22.88-15.99,34.92-3.72-1.2-4.3-4.73-5.35-7.94-4.27-13.01-8.82-25.94-12.63-39.08-2.7-9.3-8.04-15.95-17.35-21.34-3.65-3.8-6.4-6.65-8.69-9.02-4.67-.32-8.61-.4-12.5-.91-3.89-.51-7.73-1.46-11.58-2.22-12.49-5.42-21.63-14.47-28.62-26.01-7.62-12.57-15.55-24.94-23.26-37.45-4.92-7.97-8.9-15.99-10.37-25.73-1.61-10.62-4.63-21.11-8.9-31.39-8.42-20.24-18.39-39.66-27.91-59.34-1.36-2.81-2.38-5.78-3.91-9.22Z"/>
    <path class="cls-32" d="M624.14,1380.63c3.21.41,7.04,1.36,10.93,1.87,3.89.51,7.83.59,12.5.91,2.29,2.37,5.04,5.21,7.98,8.59-5.49-2.67-11.55-4.69-17.9-6.19-4.42-1.04-8.59-3.19-13.52-5.18Z"/>
    <path class="cls-65" d="M348.55,1101.04c.09-.24.66-.53,1.71-.89-.09.23-.66.53-1.71.89Z"/>
    <path class="cls-65" d="M335.23,1027.69c10.16,5.19,17.42,14.14,25.32,22.36,4,4.16,7.47,8.85,12.78,12.33-1.08,3.49.77,7.46-2.98,10.33-5.13,1.96-9.94,3.28-14.59,5.01-3.48,1.29-6.65,3.56-11.49,2.45-5.62-16.61-7.83-34.14-9.04-52.48Z"/>
    <path class="cls-40" d="M1015.35,1119.93c3.25,3.84,7.51,3.9,12.8,2.05-2.17,2.63-4.95,5.32-8.32,8.57-1.65-3.72-3.05-6.87-4.48-10.61Z"/>
    <path class="cls-48" d="M942.62,1104.01c.61-.16.91-.04,1.63.28-.37.97-1.17,1.74-2.52,2.66-.18-.79.19-1.72.89-2.95Z"/>
    <path class="cls-48" d="M945.09,1104.71c.57-.33,1.66-.46,3.29-.39-.56.33-1.66.46-3.29.39Z"/>
    <path class="cls-48" d="M949.24,1104.5c.1-.22.67-.49,1.73-.79-.1.22-.68.48-1.73.79Z"/>
    <path class="cls-48" d="M951.75,1103.67c.04-.33.6-.58,1.67-.74-.05.31-.61.55-1.67.74Z"/>
    <path class="cls-40" d="M1029.13,1121.88c.06-.2.51-.4,1.35-.65-.03.25-.47.48-1.35.65Z"/>
    <path class="cls-74" d="M439.3,1042.28c-1.11.6-2.22,1.2-3.49,1.05,2.59-4.02,5.88-7.01,5.6-12.93-4.75-3.86-9.97-8.1-15.01-12.67.18-.33.52-1,.52-1,5.85,4.06,11.7,8.13,17.8,12.37,3.18-.81,6.44-1.64,10.31-2.31.6.16.58.11.58.11-1.71,1.31-3.53,2.5-5.09,3.97-2.45,2.31-4.71,4.81-7.34,7.91-.29.68-.27.7-.86.79-1.4.96-2.21,1.83-3.03,2.71Z"/>
    <path class="cls-36" d="M426.54,1016.25c.39.49.05,1.16-.84,1.21-3.12-1.2-5.34-2.46-7.57-3.71.58-1.15,1.15-2.29,2.06-3.99,2.21,1.64,4.08,3.82,6.35,6.49Z"/>
    <path class="cls-74" d="M455.64,1026.98c.79-.71,1.56-1.44,2.86-2.36.52-.18.5-.21.5-.21-.78.74-1.56,1.47-2.87,2.35-.52.15-.5.19-.49.22Z"/>
    <path class="cls-74" d="M459.02,1024.46s.49-.3.49-.3c0,0-.19.22-.35.23s-.14.05-.14.06Z"/>
    <path class="cls-49" d="M417.72,1014.4c2.63.61,4.86,1.86,7.8,3.4,5.93,4.52,11.15,8.76,15.9,12.62.27,5.91-3.02,8.91-6.1,12.83-8.84,4.44-17.31,8.29-25.84,12.01-5.4,2.35-10.84,4.64-16.37,6.68-2.26.83-4.8.93-7.82,1.15,4.42-4.37,9.42-8.56,14.49-12.67,4.7-3.81,8.66-8.22,10.79-13.96.85-2.28,1.96-4.98,1.47-7.15-1.38-6.12,1.71-10.18,5.69-14.9Z"/>
    <path class="cls-2" d="M439.87,1042.09c.24-.68,1.05-1.56,2.46-2.53-.24.71-1.06,1.53-2.46,2.53Z"/>
    <path class="cls-49" d="M382.84,1063.29c.06-.35.55-.5,1.46-.52,0,.43-.49.63-1.46.52Z"/>
  </g>
  <g id="Layer_3" data-name="Layer 3">
    <path class="cls-28" d="M976.69,1977.94c-.19-.42.19-.95,1.15-1.58.14.39-.25.9-1.15,1.58Z"/>
  </g>
</svg>