<?xml version="1.0" encoding="UTF-8"?>
<svg id="FreeMan" xmlns="http://www.w3.org/2000/svg" viewBox="0 0 510.24 510.24">
  <defs>
    <style>
      .cls-1 {
        fill: #fff;
      }

      .cls-2 {
        stroke: #fff;
        stroke-miterlimit: 10;
      }
    </style>
  </defs>
  <rect class="cls-2" x="-3" y="1.62" width="523.05" height="510.24"/>
  <path class="cls-1" d="M252.14,88.71l-1.69-42.61c-.08-.37.65-1.79.85-1.79h12.36l-1.44,44.4h30.36c.59-.96,1.58-2.07,1.58-3.24,0-.56-.26-1.09-.27-1.67-.22-11.37-.89-22.72-1.18-34.1-.02-.79-.82-5.39.59-5.39h10.68l-1.98,52.5c-1.26,1.48-14.26-.52-16.85-.67-5.16-.3-11.68-.5-16.82-.24-1.38.07-3.91.24-5.16.6-.5.14-1.91.95-1.91,1.45v11.76l.36.36h19.56v12.24c-3.82-.41-7.47-1.65-11.24-2.32-1.53-.27-8.68-1.78-8.68,1v12.48c.21.34.48.33.83.37,1.85.22,5.26.09,7.21-.01,3.98-.21,7.91-1.16,11.88-1.44v12.24l-19.92-1.68v12.96l19.92-1.44v11.28l-19.92-1.44v49.2c8.86,1.48,17.75,4.33,24.63,10.27,3.38-.73,4.75-3.98,6.8-6.32,6.86-7.81,15.66-15.53,23.04-23.04,4.56-4.65,9.16-9.23,13.44-14.15-10.22-7.78-25.55-6.65-35.83.4-1.05.72-6.68,5.54-7.21,5.44l-6.76-7.41c12.95-10.28,32.77-14.84,48.21-7.64,3.21,1.5,6.17,5.57,9.74,2.47,2.8-2.44-.09-4.85-2.17-6.43-.99-.75-6.01-3.69-6.19-4.39-.03-.13-.05-.25,0-.38l6.81-6.88,7.32,8.76c2.08.16,5.35-1.08,5.29-3.6s-2.79-6.15-3.72-8.78c-2.38-6.76-2.27-14.69.36-21.34l9.35,4.08c-3.35,5.26-3.64,11.68-1.85,17.57.54,1.76.86,3.33,3.06,1.76,1.69-1.21,4.68-4.39,6.24-6,1-1.04,5.35-5.64,5.64-6.6.71-2.34-1.68-4.46-3.25-5.89-7.29-6.66-14.53-12.63-21.01-20.27-.38-.45-2.31-2.63-2.25-2.97l35.57-37.56c.67.1,4.92,4.22,5.57,5.01.53.64,2.05,2.56,1.69,3.35l-30.85,29.18c2.37,2.89,4.82,5.74,7.32,8.52,2.78,3.09,5.6,6.29,8.52,9.24,1.85,1.88,4.54,5.23,7.43,3.34l29.14-29.85,8.29,8.95-30.23,29.54c-.54.91.4,2.44.73,3.38l20.53,18.83,30.12-30.85c.63-.29,5.46,4.35,6.13,5.17.48.59,1.76,2.19,1.45,2.87l-37.69,34.8-26.16-26.4c-.71-.49-2.2-.96-3-.59l-12.96,13.19c5.66,4.61,12.65,2.91,18.8.39l4.38,9.35c-.38.32-.87.46-1.34.6-4.23,1.22-15.16.61-19.44-.72-3.05-.95-7.4-4.87-10.55-2.87-6.03,3.83,4.04,9.55,7.2,11.04,0,.84-4.29,5.13-5.16,5.88-.47.41-2.17,1.96-2.73,1.64l-6.27-8.49c-1.49-1.87-5.54,1.99-5.19,3.25,7.18,12.4,9.65,27.95,4.22,41.51l-9.14-4.95c3.75-7.58,4.57-15.26,2.4-23.47-.65-2.45-1.81-4.72-2.35-7.2-.25-.37-1.45-.13-1.84.09-.57.32-3.95,3.77-4.79,4.57-10.73,10.2-21.09,20.85-31.67,31.21-1.2,1.17-4.71,3.91-5.42,5.14-.33.57-.37,1.94-.1,2.53.23.5,2.06,2.51,2.62,3.38,3.75,5.9,5.31,13.1,7.6,19.64l51.54-.02c.77-1.81,1.27-1.67.32-3.48-3.49-6.62-11.19-9.37-18.28-7.28l-1.92-9.84c13.13-.86,25.54,7.56,29.03,20.29,3.08.02,5.27,1.64,6.19-2.24.14-.59.27-1.48.32-2.08.68-9.01-1.87-18.03-1.69-27.01h10.44c.17,0,.82,1.22.81,1.55l-2.14,27.62c-.02,2.35,2.89,2.57,4.64,2.22,2.79-.57,4.42-6.05,5.65-8.27,4.26-7.68,13.75-12.11,22.12-13.52v10.56h-3.72c-.87,0-3.33.71-4.26,1.02-4.4,1.47-8.02,4.83-9.44,9.28l.27.5h25.44c.28,0,1.35-1.45,1.46-1.9.41-1.66.54-5.04.59-6.85.16-5.32-.07-12-.49-17.29-.17-2.13-2.01-12.15-.24-13.21l52.08-4.2v11.52h-42.84c-.11,0-1.53,1.4-1.33,1.79v28.11c.1,1.11,2.18,1.64,3.17,1.87,4.45,1.03,8.84-.56,13.27-.81,8.78-.5,17.87.48,26.66.26.41-.01.71-.08,1.07-.25v12.48h-24.13c-6.36-1.16-13.88-1.93-19.99.52l-.05,28.65c-.16.44,1.44,2.03,1.57,2.03h42.6c1.14,3.76-.28,7.67,0,11.52l-51.59-3.73c-.43-.3-.78-.73-.92-1.24-.84-3.07-.49-8.9-.29-12.18.45-7.27,1.71-14.51,1.2-21.84-.08-1.09-.36-3.83-1.44-4.32l-21.48-.12c-1.28-.16-2.5-1.48-3.96-.85-.62.3-.53,1.3-.46,1.9.43,3.43,6.84,8.15,10.05,8.91,2.47.59,5.18.13,7.67.85l-.32,10.07c-.22.31-.61.23-.94.21-7.05-.49-17.48-6.95-21.08-13.02-1.61-2.72-2.47-7.23-5.59-8.57-2.5-1.07-4.68-.42-4.93,2.52-.73,8.32,1.87,17.36,2.17,25.69.03.92.24,2.33-.36,3h-10.92l1.62-31.33c-.04-.26-.31-.31-.54-.35-1.49-.24-4.22.53-5.9.34-3,15.36-18.98,24.02-33.82,19.81l3.48-9.61c.12-.18.26-.2.46-.22.78-.06,3.5.77,4.62.91,6.31.8,12.2-1.58,15.78-6.95,1.01-1.51,2.23-4.08-.45-4.31-4.88-.41-11.27-.17-16.32-.24-11.18-.15-22.33-.21-33.5-.12-1,.31-1.78,2.42-2.15,3.37-1.37,3.48-1.72,7.41-3.07,10.85-1.54,3.92-4.47,7.16-6.24,10.96l34.21,33.71c1.26.37,3-1.71,3.79-2.6,2.63-2.94,5.33-8.37,8.03-10.69.26-.22.71-.62,1.05-.55.55.11,5.02,4.61,5.67,5.37.53.62,2.55,3.13,2.38,3.79-.18.69-10.07,7.02-11.61,8.33-.64.54-2.61,2.22-2.54,2.98l9.13,8.65.69.09,11.67-13.89c.38.71.97,1.26,1.56,1.8,1.73,1.61,5.85,4.49,6.75,6.47.09.2.32.34.11.61-3.52,3.05-8.01,5.38-11.42,8.52-3.05,2.81-3.01,2.82-.47,6,1.26,1.58,5.8,6.44,7.8,6.35,1.05-.05,4.93-4.71,5.73-5.76,2.01-2.63,3.72-5.54,4.94-8.62,1.15-.83,7.11,7.73,8.87,7.92l-12.2,12.65c-.4,1.46,3,5.1,4.07,6.16.81.8,3.99,3.86,5.01,3.39l29.17-27.43,40.41,25.98-5.61,8.76-2.29.13-29.94-23.1c-1.75-.58-2.12-.28-3.41.76-3.65,2.96-7.67,7.56-11.15,10.93-2.35,2.27-4.88,4.42-7.21,6.71-1.65,1.61-3.06,2.74-3.12,5.28,3.87,3.41,7.37,7.2,11.04,10.81,3.35,3.29,7.2,7.43,10.68,10.44,1.99,1.72,4.3,2.93,6.6,4.2,3.1-7.63-1.07-15.21-5.87-21,.89-1.88,5.22-6.57,7.18-6.75.65-.06,1.98,2.31,2.37,2.95,7.9,12.9,6.58,29.92-6.26,39.01-11.33,8.01-25.81,5.96-36.16-2.6l7.1-7.01c1.9.43,2.9,2.2,4.29,3.31,3.02,2.43,9.3,4.31,13.13,3.78.37-.05,3.11-.85,3.24-.95.28-.24.35-1.07.26-1.45l-25.99-26.83-.45-.21-23.64,22.93,22.72,31.23c.23.93-1.34,2.35-2.01,2.93-.79.69-6.31,4.32-6.96,4.27l-25.72-38.22,28.96-30.24-8.79-8.72-13.44,12.19c-.45.08-6.05-5.44-6.69-6.22-.46-.56-1.64-1.97-1.21-2.65,1.05-.68,2.25-1.09,3.32-1.72,1.83-1.07,10.46-6.84,10.7-8.53.07-.52-.41-.97-.7-1.38-1.5-2.11-4.54-5.71-6.35-7.57-3-3.08-6.09,1.99-7.76,4.25-2.03,2.74-3.83,5.69-5.83,8.46-.27.19-1.65-.77-1.97-.99-1.14-.76-3.04-2.43-4.02-3.42-.49-.5-2.8-3.07-2.99-3.5-.12-.27-.2-.45-.01-.71l14.05-11.88-8.87-8.87c-.9-.34-2.9,1.86-3.49,2.51-1.42,1.55-7.85,10.8-8.91,11-3.68-1.42-5.58-5.59-8.72-7.65-.21-.3,1.67-1.83,2.05-2.15,2.42-2.01,11.43-7.65,11.86-10.46.06-.38.06-.76-.04-1.14l-31.64-32.68c-1.05-.25-2.3-.6-3.36-.27-.74.23-3.56,2.5-4.57,3.11-2.13,1.3-4.3,2.62-6.7,3.38-2.52.8-10.05,1.71-11.53,3.35-1.64,1.83-.14,5.96.02,8.16.38,5.17-.09,11.06-.02,16.34.18,13.39.38,26.91.5,40.3.14,16.37.22,32.72.33,49.11l69.5.46.72,27.6h8.4l-.24,8.88h-8.16l2.16,7.92c.4.36,5.38-3.34,6.37-1.68.28.46-.62,3.79-.62,4.69,0,1.06.66,2.65.68,3.39,0,.06-.37,1.04-.43,1.04h-27.6v-9.84c6.49,2.99,9.07,1.18,7.92-6l-7.92.72v-9.84c2.16.09,5.76,1.39,7.75.43.2-.1.89-.68.89-.79v-17.4h-16.8v4.32l3.84-.72-.27,3.57c-.91.51-2.83-.03-3.45.51-.24.21-.97,2.2-1.03,2.59-.4,2.86,2.94,2.24,4.75,1.98v6h-3.84l.72,5.76c-2.92.54-5.98,1.24-8.88.24l.48-6h-3.84v-6h4.8c-.36-1.11-.13-3.51-.82-4.34-1.04-1.25-3.98.64-3.98-.82v-3.72c1.34-.02,5.16.15,4.34-2.04-.15-.4-.99-1.32-1.34-1.32h-34.2v4.68c1.04,1.15,2.48.37,3.71.35,6.91-.14,13.84.1,20.74.04l1.71,25.77-10.56-.6c-.28-4.59,1.59-9.48,1.21-14.05-.08-.92-.56-3.28-1.57-3.47h-13.45c-2.13.17-1.74,4.28-.84,5.41,1.42,1.79,5.64-.93,6.73-.25.84.52,1.22,4.94,1.21,6.01,0,.52-.19,2.68-.3,3.07-.54,1.86-5.05-.09-6.32-.08-.42,0-1.55.52-1.55.85v6.6l7.2-.72v9.12h-27.36v-9.84l6.85,1.14c.34-.06.33-.48.36-.77.2-2.12-.48-4.25-.25-6.37l-6.96.72v-9.84c2.89.61,8.28,2.4,7.93-2.52-.04-.58-.78-2.52-1.33-2.52h-14.76l.24,17.52-10.32.72,1.44-25.92c7,.11,14.01-.14,21.01,0,1.06.02,2.2.61,3.31.03.12-.08.4-.52.4-.62v-4.44h-34.44c-.09,0-1.05,1.04-1.14,1.27-.97,2.25,3.05,2.08,4.38,2.09l-.51,3.68-.36.36c-6.37-.31-4.84,6.6.87,5.07.09,3.52,1.08,6.53-3.84,5.76v5.52c-2.21.77-7.63,2.46-8.47-.76-.47-1.79.58-3.04.79-4.76h-4.08v-6l3.43.49c1.69-1.82,1.5-3.05.42-5.18l-3.85-.35v-3.6l4.08.72v-4.32h-15.6c-3.38,5.87.93,12.35-.72,18.48.72.5,6.52-.79,7.92-.12,1.58.76,1.32,8.54.33,9.26-1.98,1.43-7.33-3.41-7.76,2.02-.06.79.25,4.08.71,4.56,1.49,1.55,6.16-1.83,7.41-1.05.87,1.95.95,10.15-1.79,10.46l-26.01-.89v-9.84l7.92.96c.14-.34-.24-.72-.24-.84v-6.12l-7.68.72v-9.84c1.89.04,5.08,1.05,6.83.71.92-.18,1.29-1.43,1.69-2.15l.34-25.1,1.4-1c22.57-.12,45.15.52,67.74.42l1.19-87.97c.08-6.19.38-12.51.5-18.7.03-1.59.24-4.86-.02-6.24s-5.16-2.64-6.53-3.07c-2.69-.85-5.99-1.4-8.51-2.53-3.27-1.47-8.6-7.13-12.3-4.71l-52.52,53.56c-.74,2.89,2.14,3.57,4.33,4.21,8.17,2.43,18.1-.46,23.46-7.15.75-.93,2.16-3.94,2.72-4.37,1.53-1.18,7.81,3.13,9.51,3.79-3.7,9.12-15.52,15.85-25.07,16.54-8.04.57-14.75-2.14-22.04-4.99l-6.58,6.31c.55,2.65,9.8,5.96,10.16,7.54.09.41-.28.71-.49.99-1.18,1.53-4.47,4.68-6,6-.46.4-.96.74-1.44,1.11-.77.09-3.2-2.59-3.85-3.27-.9-.94-4.13-5.11-5.09-5.25l-.67.19c-1.31,1.59-6.32,4.72-4.92,7.11l25.4,25.9-30.57,40.65c-.56.11-6.55-4.4-7.29-5.13-.61-.6-1.9-1.93-1.64-2.83,5.5-6.86,11.89-12.95,17.61-19.61,2.06-2.4,7.26-8.19,8.47-10.73,1.53-3.2-.71-4.82-2.71-7.04-3.67-4.06-8.91-9.33-13.08-12.84-.68-.57-2.98-2.71-3.8-2.23l-6.27,7.04c1.09,1.29,2.2,2.6,3.48,3.71,1.17,1.01,8.36,5.67,8.49,6.17.05.2.04.38-.09.55-1.28,1.69-7.17,7.63-9.11,7.45-1.55-.15-4.54-6.16-5.6-7.61-1.45-1.99-3.2-4.09-5.89-2.43-1.1.68-3.64,4.09-3.52,5.34.26,2.66,6.01,5.09,5.72,6.93-.14.9-5.99,6.81-6.8,6.81-1.68,0-3.11-6.77-5.34-7.09-.74-.11-4.35,3-5.26,3.55l-8.72-8.98c0-.29,3.33-3.75,3.71-4.44.11-.21.21-.48.09-.69l-6.67-4.49c-.18-.76,5.18-6.54,5.91-6.77,2.54-.77,5.15,5.6,7.64,5.46.25-.01,1.69-1.26,2.03-1.54.49-.42,3.36-2.99,3.48-3.25.31-.66.02-1.29-.27-1.89-1.32-2.8-10.48-7.88-10.64-8.82l8.51-8.72,9.54,11.36c1.14.49,3.53-1.21,4.38-2,1.52-1.39,3.32-4.01,2.24-6.1-3.42-3.68-6.82-7.43-10.4-10.96-2.09-2.05-5.19-5.31-7.46-6.94-.9-.65-1.26-1.28-2.52-.86l-33.76,27.23c-.85.22-3.3-2.73-3.9-3.46-.88-1.07-2.97-3.8-3.42-4.98-.12-.32-.28-.6-.16-.96l41.85-30.09,3.73,2.19,23.83,23.61c.84-.66,6.49-5.25,6.39-5.82l-8.35-9.35c.09-.36.35-.61.56-.89,1.05-1.36,5-5.31,6.36-6.36.29-.23.79-.76,1.21-.49,1.68,1.7,4.91,9.86,7.14,10.19.27.04.47.01.67-.19l6.48-6.02c-.79-4.26-3.65-7.63-4.39-11.95-2.14-12.61,3.17-26.13,13.13-34.02.41-.32.84-.6,1.33-.78.75.06,4.19,7.73,4.66,8.92-9.99,5.14-15.11,16.25-11.51,27.15.45,1.35,1.25,2.55,1.58,3.94l1.32.4,56.04-54.88c.27-.61-.65-2.02-.96-2.64-1.29-2.54-3.1-4.86-4.34-7.42-2.34-4.86-2.99-10.33-4.94-15.34l-115.23.99c-.73.42-1.27.59-1.39,1.49-.6,4.39.48,10.12,0,14.66.06.65.26,1.23.26,1.9.11,14.43-.28,28.9.2,43.3-.25.39-7.14.45-8.24.51-11.37.67-23.24,1.89-34.58,2.17-.45.01-2.03-.5-2.03-.85v-12.36l33.67,1.15c.93-.28,1.2-3.49,1.33-4.43.54-3.82,1.05-9.88.49-13.63-.16-1.11-.65-1.91-1.66-2.42-3.04-1.53-9.4-1.09-12.84-.84-7.02.53-13.97,2.05-21,2.4v-13.92c5.81.53,11.59,1.63,17.4,2.16,4.16.38,9.07.78,13.19.24,2.06-.27,4.81-.79,5.14-3.26-.26-5.14.42-10.74.03-15.83-.12-1.64-.26-2.31-2.05-2.51-2.23-.25-4.51.46-6.71.73h-27.01v-12.49c2.82.38,5.89.3,8.77.25,5.65-.1,11.61-.7,17.28-.26,2.71.21,5.51,1.75,8.19.53.89-.4,1.4-.83,1.52-1.84.58-4.88-.45-10.86.01-15.86.04-.59-1.28-1.6-1.8-1.8-.66-.26-3.2-.43-4.09-.47-10.01-.5-19.95,1.11-29.89,1.69v-13.68c5.62.18,11.07,2.08,16.68,2.4,3.81.21,13.1.44,16.49-.55,1.42-.41,1.86-1.16,2.24-2.56.85-3.12.2-12.28-.44-15.66-.16-.88-.37-2.4-1.36-2.72l-33.61,1.33v-12.48l44.88,1.68-.72,60.96,117.14.37c1.55-4.4,2.03-9.25,4.02-13.5,1.6-3.4,4.4-6.58,6.18-9.91.26-.71-.04-1.62-.41-2.25-.81-1.38-4.91-5.01-6.32-6.4-13.24-13.08-26.98-25.66-40.08-38.88-.77-.77-1.88-1.39-2.89-.72-.16,1.2-.93,2.13-1.32,3.24-3.89,11.08,2.2,22.05,11.79,27.64l-4.85,10.61c-1.13.73-4.27-1.85-5.13-2.6-3.7-3.22-7.57-8.05-9.52-12.56-4.84-11.25-3.07-23.23,2.86-33.65l-7.38-8.52-31.56,29.53-44.72-41.68c-.17-.86,4.81-5.73,5.72-6.45s2.47-2.2,3.6-1.68l35.44,37.78,23.73-23.51c.82-1.8-3.41-5.09-4.93-5.63-1.21-.43-1.86-.74-2.88.23-2.04,1.92-3.85,5.14-5.86,7.09-.19.18-.38.51-.69.46l-8.07-8.02,9.01-7.09c.39-.8-2.32-3.88-3.03-4.41-4.4-3.27-9.14.64-13.78,1.06-27.22,2.43-38.96-33-15.55-46.99,18.84-11.26,41.22,5.49,37.44,26.64-.76,4.29-4.91,9.55.14,12.72.71.45,3.63,1.6,4.32,1.36.79-.27,5.7-8.32,6.4-8.02l8.16,8.65-9.34,7.41,6.94,6.29.61-.12,22.92-23.65-37.57-36.13c-.39-.83.46-1.77.96-2.4.59-.74,6.04-6.01,6.49-6.01l42.81,44.34-.2.68-24.13,24.12c-1.79,1.47-6.59,4.08-4.79,6.94l8.15,7.39c15.43-9.41,37.72-5.26,47.78,9.91l-9.9,5.97c-.47.05-1.61-2.41-1.99-2.98-5.68-8.43-14-11.45-23.92-9.02-1.92.47-5.86,1.35-5.37,3.98l48,47.54c7.56-5,16.12-8.25,24.96-10.22v-48.24l-19.92,1.2v-11.76c1.14.12,2.32.14,3.45.27,3.6.4,13.12,2.91,15.87.7,2.15-1.73.27-6.59.12-9.01-.12-1.93.78-2.59-1.37-3.92l-18.07,2.12v-12c6.54.85,13.05,1.79,19.68,1.44v-13.32c0-1.04-3.4-1.35-4.2-1.32-5.07.21-10.37,2.8-15.48,3.12v-12.24h19.68v-12.36c0-1-3.16-1.51-3.95-1.57-10.95-.79-23.12,1.79-34.34.98-.43-.03-2.25-.26-2.41-.47l-1.78-52.34h10.92c1.33,2.11-.19,5.18-.37,7.55-.53,6.95-.53,14.38-.7,21.38-.08,3.12-1,12.18.61,14.49.12.18.88.98.94.98h30.36ZM116.02,98.62c-3.34.1-7.59,1.41-10.35,3.34-.27.19-1.44.91-1.36,1.26l28.91,28.45c9.62-13.59-.23-33.54-17.21-33.05ZM127.58,137.43l-28.2-28.8c-10.95,18.51,9.21,40.27,28.2,28.8Z"/>
  <circle class="cls-1" cx="306.38" cy="188.97" r="5.7"/>
  <circle class="cls-1" cx="327.06" cy="210.1" r="5.7"/>
</svg>