<svg xmlns="http://www.w3.org/2000/svg" version="1.1" xmlns:xlink="http://www.w3.org/1999/xlink" xmlns:svgjs="http://svgjs.dev/svgjs" width="100%" height="100%" viewBox="0 0 1000 600"><rect width="1000" height="600" x="0" y="0" fill="#f4efee"/><g><rect width="333.3333333333333" height="333.3333333333333" rx="13.333333333333334" ry="13.333333333333334" y="227.42084101661047" fill="#7d141a" transform="matrix(0.6091658037478767,0,0,0.6091658037478768,0,59.935343746935345)" x="205.19859313964844"/><path d="M374.6578136597731 469.08750979679104L371.7618329118175 469.08750979679104Q361.3599428783442 469.08750979679104 351.8150267396741 466.3983848165465Q342.2405597770453 463.709259836302 333.9367782446419 458.86292470707014Q325.6329967122385 454.04614040179695 318.8363072017304 447.19034924337143Q312.01006686726356 440.3050072609871 307.13418091407294 431.94212408066625Q302.2582949608823 423.5792409003454 299.59872080459655 414.0343247616753Q296.96869747226947 404.4894086230052 296.96869747226947 394.0875185895319L296.96869747226947 394.0875185895319Q296.96869747226947 383.68562855605865 299.59872080459655 374.14071241738856Q302.2582949608823 364.59579627871847 307.13418091407294 356.2329130983976Q312.01006686726356 347.87002991807674 318.8363072017304 341.01423875965116Q325.6329967122385 334.1584476012256 333.9367782446419 329.3121124719937Q342.2405597770453 324.4953281667206 351.8150267396741 321.7766523625173Q361.3599428783442 319.0875273822728 371.7618329118175 319.0875273822728L371.7618329118175 319.0875273822728Q382.04551964945585 319.0875273822728 391.59043578812594 321.7766523625173Q401.1649027507548 324.4953281667206 409.52778593107564 329.3712141199112Q417.89066911139645 334.2471000731018 424.746460269822 341.10289123152734Q431.6022514282476 347.95868238995297 436.4781373814382 356.3215655702738Q441.35402333462883 364.68444875059464 444.0726991388321 374.2589157132235Q446.76182411907655 383.80383185189356 446.76182411907655 394.0875185895319L446.76182411907655 394.0875185895319Q446.76182411907655 414.6548920648087 436.064425846016 424.84992633057084Q425.3670275729554 435.01540977237426 403.115257132031 435.01540977237426L403.115257132031 435.01540977237426Q399.68736155281823 435.01540977237426 395.90485608610066 434.7494523567457Q392.1223506193831 434.51304576507584 388.1625402089132 433.9811309338187L388.1625402089132 433.9811309338187Q387.3351171380687 430.87829441815194 386.9214056026465 428.5733301493709L386.9214056026465 428.5733301493709Q386.7145498349353 427.74590707852644 386.6554481870179 426.91848400768197Q386.62589736305915 426.0910609368375 386.50769406722424 425.2636378659931L386.50769406722424 425.2636378659931Q386.3894907713893 424.5248672670248 386.3894907713893 423.1359785409644Q386.3894907713893 421.71753899094534 386.3894907713893 419.8558370815453L386.3894907713893 419.8558370815453Q386.3894907713893 416.2210857346214 386.44859241930675 413.3546558106245Q386.50769406722424 410.48822588662756 386.50769406722424 408.6265239772275L386.50769406722424 408.6265239772275L385.4734152286686 408.41966820951643Q383.9072215588559 413.9456722897991 381.5727064661162 418.64425329923733Q379.2381913733764 423.3723851326343 376.0762532097922 426.97758565559946Q372.88476422224926 430.5532353546059 368.8363013399031 432.5922422077583Q364.787838457557 434.601698236952 359.79374920853144 434.601698236952L359.79374920853144 434.601698236952Q355.0360665511758 434.601698236952 351.43086602821063 432.68089467963455Q347.85521632920415 430.760091122317 345.3138454687533 427.53905131081535Q342.77247460830245 424.3180114993137 341.14717929057224 420.1513453211326Q339.5514347968008 416.0142299669103 338.8126641978325 411.433852253307L338.8126641978325 411.433852253307Q338.31030019053406 408.41966820951643 338.0443427749055 405.3463825178084Q337.7783853592769 402.30264765005916 337.7783853592769 398.9634045427225L337.7783853592769 398.9634045427225Q337.7783853592769 390.9846820738652 339.64008726867695 383.0355104289665Q341.53134000203573 375.08633878406795 345.8753111239692 368.7329116329408Q350.24883306986135 362.40903530577236 357.51833576370916 358.44922489530245Q364.787838457557 354.5189653087912 375.6034400264525 354.5189653087912L375.6034400264525 354.5189653087912Q386.7145498349353 354.5189653087912 401.46041099034204 358.0355133598802L401.46041099034204 358.0355133598802L400.3374796799103 385.9905928248396Q400.2192763840754 388.59106533320795 400.1306239121992 392.72818068743027Q400.01242061636424 396.8948468656114 399.86466649657063 401.3570212833797Q399.68736155281823 405.8191957011481 399.59870908094206 410.1336159991228Q399.4805057851071 414.44803629709753 399.4805057851071 417.3735678690119L399.4805057851071 417.3735678690119Q399.4805057851071 418.4964991794437 399.4805057851071 419.44212554612307Q399.4805057851071 420.3582010888437 399.59870908094206 421.0083192159358L399.59870908094206 421.0083192159358Q399.59870908094206 421.5106832232342 399.59870908094206 422.0425980544914Q399.59870908094206 422.5449620617898 399.68736155281823 423.076876893047L399.68736155281823 423.076876893047Q401.7854700538881 423.3723851326343 403.5880703153707 423.4314867805517Q405.420221400812 423.4905884284692 407.28192331021205 423.4905884284692L407.28192331021205 423.4905884284692Q413.93085870092654 423.4905884284692 418.92494794995207 421.3038274555231Q423.91903719897755 419.117066482577 427.22872948235545 415.2163577200246Q430.56797258969203 411.3451997814308 432.222818731381 405.937398996983Q433.8776648730699 400.52959821253523 433.8776648730699 394.0875185895319L433.8776648730699 394.0875185895319Q433.8776648730699 385.57688128941743 431.6613530761651 377.68681129243623Q429.4154904553015 369.76719047149635 425.3670275729554 362.8818484891121Q421.3185646906092 355.966955682769 415.5857048426155 350.2340958347752Q409.8823958185804 344.53078681074015 402.96750301223733 340.482323928394Q396.0526102058943 336.4338610460479 388.1625402089132 334.18799842518433Q380.272470211932 331.9716866282795 371.7618329118175 331.9716866282795L371.7618329118175 331.9716866282795Q363.22164478774425 331.9716866282795 355.33157479076306 334.18799842518433Q347.4415047937819 336.4338610460479 340.5266119874389 340.482323928394Q333.6412700050546 344.53078681074015 327.90841015706076 350.2340958347752Q322.2051011330257 355.966955682769 318.1566382506796 362.8818484891121Q314.10817536833343 369.76719047149635 311.8623127474699 377.68681129243623Q309.6164501266063 385.57688128941743 309.6164501266063 394.0875185895319L309.6164501266063 394.0875185895319Q309.6164501266063 402.5981558896464 311.8623127474699 410.48822588662756Q314.10817536833343 418.4078467075675 318.1566382506796 425.29318868995176Q322.2051011330257 432.2080814962948 327.90841015706076 437.9409413442886Q333.6412700050546 443.6442503683237 340.5266119874389 447.69271325066984Q347.4415047937819 451.741176133016 355.33157479076306 453.9870387538796Q363.22164478774425 456.20335055078436 371.7618329118175 456.20335055078436L371.7618329118175 456.20335055078436L374.6578136597731 456.20335055078436L374.6578136597731 469.08750979679104ZM386.7145498349353 388.0591505019508L387.95568444120204 366.9598621954169Q385.3552119328337 366.5461506599947 382.72518860050667 366.2506424204074Q380.06561444422084 365.92558335686135 377.3764894639764 365.92558335686135L377.3764894639764 365.92558335686135Q369.1613604034492 365.92558335686135 363.90131373879507 368.93976740065193Q358.6708178980997 371.95395144444245 355.7157355022266 376.7411849257569Q352.7311022823948 381.5284184070713 351.608170971963 387.43858319881747Q350.4556888375725 393.34874799056365 350.4556888375725 399.0816078385575L350.4556888375725 399.0816078385575Q350.4556888375725 405.5236874615608 351.4013152042519 410.60642918246253L351.4013152042519 410.60642918246253Q352.31739074697253 415.600518431488 354.62235501575356 419.0284140107008Q356.89776846057583 422.45630958991364 361.5667986460553 422.45630958991364L361.5667986460553 422.45630958991364Q364.16727115442364 422.45630958991364 366.67909119091576 421.21517498364693Q369.1613604034492 419.9444895534215 371.0230623128492 417.6690761085992L371.0230623128492 417.6690761085992Q373.62353482121756 414.86174783251977 376.01715156187475 411.16789483767843Q378.41076830253195 407.5035926667958 380.42022433172565 403.4846806084084Q382.4592311848781 399.49531937397967 384.0254248546908 395.47640731559227Q385.56206770054484 391.4870460811636 386.7145498349353 388.0591505019508L386.7145498349353 388.0591505019508Z " fill="#F4EFE" transform="matrix(0.6091658037478767,0,0,0.6091658037478768,0,59.935343746935345)"/><path d="M680.518520481749 351.2141908833093L695.346208398513 351.2141908833093L667.7766846878326 434.10414046081553L649.4347893901843 434.10414046081553L621.8652656795039 351.2141908833093L636.6929535962678 351.2141908833093L658.5944008861668 423.58419062384536L680.518520481749 351.2141908833093ZM770.7542971005878 418.70964490197343L774.7446229008178 429.47899010145795Q765.9024236843991 432.9931974823424 758.1258228350871 434.51224196311176Q750.3492219857751 436.008614138198 744.205027145648 436.008614138198L744.205027145648 436.008614138198Q734.7960202871511 436.008614138198 727.7902778310654 433.03854209370866Q720.7845353749797 430.04579774353607 716.1140404042558 424.62711668526913Q711.443545433532 419.2084356270022 709.10829794817 411.65855783452145Q706.750378157125 404.1313523477238 706.750378157125 395.03975776879054L706.750378157125 395.03975776879054Q706.750378157125 389.46237057074177 707.5439088560345 383.8849833726929Q708.3374395549438 378.30759617464406 710.1058793982277 373.25167200730715Q711.8516469358283 368.1957478399702 714.6856851462189 363.79732053744385Q717.5197233566096 359.4215655406007 721.578066073889 356.22477043928Q725.6364087911684 353.0506476436425 731.0550898494355 351.2141908833093Q736.4737709077024 349.37773412297616 743.4114964467387 349.37773412297616L743.4114964467387 349.37773412297616Q761.1865841023089 349.37773412297616 770.1874894585096 360.48716390770755Q779.2110671203936 371.6192659981221 779.2110671203936 392.3417533924987L779.2110671203936 392.3417533924987L779.2110671203936 396.71750838934184L720.852552292029 396.71750838934184Q720.852552292029 403.4058385658638 722.2809075500659 408.5524519559333Q723.731935113786 413.6990653460027 726.7246794639584 417.23594503257027Q729.6947515084478 420.795497024821 734.2972295621223 422.6319537851541Q738.8770353101136 424.46841054548725 745.1572639843394 424.46841054548725L745.1572639843394 424.46841054548725Q748.6714713652239 424.46841054548725 752.140334134742 423.9469475147754Q755.6091969042602 423.4254844840635 758.8740089226301 422.58660917378785Q762.1388209410002 421.7477338635122 765.1315652911728 420.70480780208845Q768.1243096413452 419.6845540463478 770.7542971005878 418.70964490197343L770.7542971005878 418.70964490197343ZM721.2606537943252 385.7214401330261L765.4036329593703 385.7214401330261Q764.7688084002427 372.7982258936446 759.2367658135602 366.8807541103489Q753.7047232268776 360.94061002137005 743.4114964467387 360.94061002137005L743.4114964467387 360.94061002137005Q733.1409419722829 360.94061002137005 727.7449332196991 366.8807541103489Q722.3715967727985 372.7982258936446 721.2606537943252 385.7214401330261L721.2606537943252 385.7214401330261ZM840.5849986046139 351.2141908833093L847.9081533402634 351.2141908833093Q851.3316714984153 351.2141908833093 853.9389866519746 351.12350166057684Q856.523629499851 351.0554847435274 858.9042215965792 350.7607447696468Q861.3074859989904 350.4886771014493 863.7334227070849 349.9218694593711Q866.1593594151793 349.37773412297616 869.4241714335492 348.3348080615524L869.4241714335492 348.3348080615524Q870.4670974949731 351.3728970230912 871.4646789450305 354.0709013993831Q872.4622603950882 356.7915780813581 873.5051864565119 359.64828859743193L873.5051864565119 359.64828859743193Q870.9432159143187 360.62319774180634 868.7893468744217 361.1673330782013Q866.6354778345249 361.73414072027947 864.5269534059942 362.09689761120944Q862.4184289774635 362.43698219645637 860.309904548933 362.5730160305551Q858.2013801204023 362.6863775589707 855.7981157179909 362.77706678170324L855.7981157179909 362.77706678170324Q858.0426739806203 366.35929107963705 859.221633876143 370.82573529921274Q860.4232660773484 375.26950721310527 860.4232660773484 380.5294821315904L860.4232660773484 380.5294821315904Q860.4232660773484 388.1927214524867 858.1106908976697 393.8834701789512Q855.7981157179909 399.59689121109875 851.4903776381971 403.5872170113288L851.4903776381971 403.5872170113288Q847.1826395584033 407.5548705058758 841.1744785523751 409.595378017357Q835.1663175463468 411.63588552883834 827.6617843652325 411.63588552883834L827.6617843652325 411.63588552883834Q823.8301647047842 411.63588552883834 820.4066465466324 411.1824394151758Q816.9831283884803 410.7516656071964 813.8770225098922 409.64072262872327L813.8770225098922 409.64072262872327Q813.1515087280322 411.5451963061058 812.6300456973204 413.54035920622084Q812.1312549722916 415.53552210633586 812.1539272779746 417.3266342553028Q812.1992718893409 419.11774640426967 812.8340964484685 420.59144627367283Q813.468921007596 422.06514614307594 815.0786547110979 422.9493660647179L815.0786547110979 422.9493660647179Q815.8721854100072 423.4254844840635 816.7337330259659 423.697552152261Q817.6179529476078 423.9922921261416 818.8649297601798 424.17367057160664Q820.0892342670686 424.3777213227547 821.8350018046692 424.4910828511704Q823.6034416479529 424.62711668526913 826.0747229674137 424.62711668526913L826.0747229674137 424.62711668526913Q828.4553150641418 424.6951336023185 831.6974547768289 424.6951336023185Q834.9169221838324 424.6951336023185 839.2246602636262 424.6951336023185L839.2246602636262 424.6951336023185Q851.6490837779791 424.6951336023185 858.0426739806203 429.90976390943734Q864.4135918775785 435.1470665222393 864.4135918775785 446.14313477855507L864.4135918775785 446.14313477855507Q864.4135918775785 450.60957899813076 862.9852366195416 454.07844176764894Q861.5342090558217 457.5473045371671 859.0402554306779 460.08660277367716Q856.523629499851 462.6485733158703 853.100111341699 464.3489962421047Q849.653920877864 466.0720914740223 845.686267383317 467.1376898411291Q841.695941583087 468.2259605139192 837.3428588919269 468.6567343218985Q833.01244850645 469.08750812987796 828.6140212039238 469.08750812987796L828.6140212039238 469.08750812987796Q824.2382662070804 469.08750812987796 819.8171665988712 468.6113897105323Q815.3960669906617 468.13527129118665 811.1563458279172 467.43242981500975L811.1563458279172 467.43242981500975Q806.9392969708558 466.70691603314975 803.2437111445065 465.7773515001416Q799.5254530124739 464.87045927281656 796.6687424964 463.98623935117473L796.6687424964 463.98623935117473Q797.7796854748733 461.2882349748828 799.1626961215438 458.56755829290773Q800.5683790738976 455.8695539166158 802.1554404717165 453.46628951420456L802.1554404717165 453.46628951420456Q807.1886923333702 454.91731707792457 814.1037455667235 456.25498311322895Q821.0414711057599 457.6153214542165 829.4982411255655 457.6153214542165L829.4982411255655 457.6153214542165Q833.3298607860138 457.6153214542165 837.0254466123631 457.1392030348709Q840.7437047443957 456.66308461552524 843.7364490945683 455.34809088590396Q846.7065211390577 454.0330971562827 848.5429778993907 451.8338835050195Q850.379434659724 449.6573421594395 850.379434659724 446.14313477855507L850.379434659724 446.14313477855507Q850.379434659724 442.47022125788874 849.0644409301028 440.4750583577737Q847.7494472004814 438.4798954576587 845.5275612435353 437.52765861896745Q843.2830029809058 436.5754217802762 840.2675863250502 436.4167156404943Q837.2294973635112 436.25800950071243 833.8739961224087 436.25800950071243L833.8739961224087 436.25800950071243L823.4447355081711 436.25800950071243Q818.7288959260811 436.25800950071243 814.6025362917521 435.53249571885243Q810.4535043517403 434.82965424267553 807.3473984731522 433.106559010758Q804.2412925945639 431.38346377884045 802.4275081399139 428.59477017981607Q800.636395990947 425.8060765807917 800.636395990947 421.7477338635122L800.636395990947 421.7477338635122Q800.636395990947 417.84809728601465 802.0874235546671 413.65372073463647Q803.515778812704 409.48201648894144 805.8283539923827 405.17427840914763L805.8283539923827 405.17427840914763Q800.5683790738976 401.3426587486994 797.734340863507 395.03975776879054Q794.9003026531163 388.75952909456487 794.9003026531163 380.5294821315904L794.9003026531163 380.5294821315904Q794.9003026531163 373.047621256159 797.2582224441614 367.26618330696203Q799.6161422352063 361.48474535776506 803.9012080093171 357.42640264048566L803.9012080093171 357.42640264048566Q808.2089460891109 353.3680599232062 814.194434789456 351.3728970230912Q820.179923489801 349.37773412297616 827.6617843652325 349.37773412297616L827.6617843652325 349.37773412297616Q834.6901991270013 349.37773412297616 840.5849986046139 351.2141908833093L840.5849986046139 351.2141908833093ZM827.6617843652325 360.37380237929193L827.6617843652325 360.37380237929193Q822.6512048092618 360.37380237929193 819.0463082056449 361.89284686006135Q815.464083907711 363.4118913408307 813.1968533393986 366.0645511057564Q810.9296227710859 368.7398831763652 809.8413520982958 372.4581413083977Q808.7757537311891 376.15372713474716 808.7757537311891 380.5294821315904L808.7757537311891 380.5294821315904Q808.7757537311891 384.9959263511661 809.8413520982958 388.66883987183235Q810.9296227710859 392.3417533924987 813.2421979507646 395.0170854631075Q815.5547731304434 397.6697452280331 819.091652817011 399.14344509743626Q822.6512048092618 400.6171449668394 827.6617843652325 400.6171449668394L827.6617843652325 400.6171449668394Q832.6950362268863 400.6171449668394 836.2772605248201 399.14344509743626Q839.8594848227538 397.6697452280331 842.1267153910665 395.0170854631075Q844.3939459593789 392.3417533924987 845.482216632169 388.6234952604661Q846.5478149992757 384.92790943411666 846.5478149992757 380.5294821315904L846.5478149992757 380.5294821315904Q846.5478149992757 376.15372713474716 845.482216632169 372.4581413083977Q844.3939459593789 368.7398831763652 842.1267153910665 366.0645511057564Q839.8594848227538 363.4118913408307 836.2772605248201 361.89284686006135Q832.6950362268863 360.37380237929193 827.6617843652325 360.37380237929193ZM938.9374606580116 351.2141908833093L953.7651485747756 351.2141908833093L926.1729525584119 434.10414046081553L907.8537295664466 434.10414046081553L880.2615335500832 351.2141908833093L895.0892214668472 351.2141908833093L917.0133410624294 423.58419062384536L938.9374606580116 351.2141908833093ZM979.180803245559 319.08753373032073L979.180803245559 319.08753373032073Q982.8537167662253 319.08753373032073 985.5743934482005 321.62683196683076L985.5743934482005 321.62683196683076Q988.204380907443 324.4155255658552 988.204380907443 328.179128309254L988.204380907443 328.179128309254Q988.204380907443 331.98807566401905 985.5743934482005 334.61806312326155L985.5743934482005 334.61806312326155Q982.8537167662253 337.3387398052366 979.180803245559 337.3387398052366L979.180803245559 337.3387398052366Q975.371855890794 337.3387398052366 972.6511792088188 334.61806312326155L972.6511792088188 334.61806312326155Q969.9531748325269 332.0787648867515 969.9531748325269 328.179128309254L969.9531748325269 328.179128309254Q969.9531748325269 324.34750864880584 972.6511792088188 321.62683196683076L972.6511792088188 321.62683196683076Q975.371855890794 319.08753373032073 979.180803245559 319.08753373032073ZM972.1750607894733 434.10414046081553L972.1750607894733 351.2141908833093L985.891805727764 351.2141908833093L985.891805727764 434.10414046081553L972.1750607894733 434.10414046081553ZM1039.058362554693 349.37773412297616L1039.058362554693 349.37773412297616Q1045.587986591433 349.37773412297616 1052.1629552395395 350.7380724639637Q1058.7379238876458 352.0757384992681 1064.406000308427 354.47900290167934L1064.406000308427 354.47900290167934Q1063.2723850242708 357.0183011381894 1062.0934251287483 359.48958245765004Q1060.8917929275426 361.9608637771107 1059.4634376695058 364.364128179522L1059.4634376695058 364.364128179522Q1057.4682747693907 363.5705974806126 1055.0196657556132 362.77706678170324Q1052.5937290475188 361.9608637771107 1049.9183969769101 361.4167284407157Q1047.2657372119843 360.8499207986376 1044.4316990015936 360.48716390770755Q1041.597660791203 360.1244070167776 1038.899656414911 360.1244070167776L1038.899656414911 360.1244070167776Q1035.9295843704217 360.1244070167776 1033.1862353827635 360.73655927022196Q1030.4428863951052 361.3260392179832 1028.3343619665748 362.6863775589707Q1026.225837538044 364.04671589995826 1024.933516114106 366.22325724553826Q1023.6638669958509 368.4224708968014 1023.6638669958509 371.68728291517147L1023.6638669958509 371.68728291517147Q1023.6638669958509 375.042784156274 1025.0922222538877 377.31001472458655Q1026.5432498176078 379.5772452928991 1029.0145311370684 381.0962897736685Q1031.4858124565292 382.6153342544379 1034.7732967805823 383.65826031586164Q1038.0834534103187 384.6785140716023 1041.8470561537174 385.5627339932442L1041.8470561537174 385.5627339932442Q1047.6511664085974 386.9910892512811 1052.6844182702512 388.78220140024797Q1057.6949978262219 390.5733135492149 1061.3679113468884 393.4526963709718Q1065.0408248675546 396.3320791927287 1067.104004684719 400.54912804979006Q1069.1671845018834 404.76617690685134 1069.1671845018834 410.97838866402765L1069.1671845018834 410.97838866402765Q1069.1671845018834 417.5306850064509 1066.5825416540072 422.2238522828578Q1063.997898806131 426.9396918649479 1059.5767991979214 430.0004531321698Q1055.155699589712 433.06121439939176 1049.2609001120995 434.53491426879486Q1043.3434283288036 436.008614138198 1036.6550981522817 436.008614138198L1036.6550981522817 436.008614138198Q1033.1408907713974 436.008614138198 1029.4453049450478 435.5778403302187Q1025.7270468130152 435.1470665222393 1022.0994779037153 434.3081912119637Q1018.4945813000984 433.469315901688 1014.9803739192139 432.2676837004824Q1011.4661665383294 431.0660514992767 1008.3600606597413 429.63769624123984L1008.3600606597413 429.63769624123984Q1009.4710036382144 427.0983980047298 1010.7179804507864 424.6497889909523Q1011.9422849576752 422.2238522828578 1013.3026232986626 419.84326018612967L1013.3026232986626 419.84326018612967Q1015.9326107579052 420.95420316460286 1018.8800104967115 421.95178461466037Q1021.8274102355176 422.9493660647179 1024.933516114106 423.6522075408947Q1028.039621992694 424.3777213227547 1031.077710954233 424.8084951307341Q1034.1157999157717 425.26194124439667 1036.904493514796 425.26194124439667L1036.904493514796 425.26194124439667Q1040.3960285899973 425.26194124439667 1043.7061852197337 424.46841054548725Q1047.0163418494699 423.6522075408947 1049.6009846973463 421.95178461466037Q1052.2082998509056 420.2286893827428 1053.7500166373582 417.5306850064509Q1055.3144057294937 414.81000832447586 1055.3144057294937 410.97838866402765L1055.3144057294937 410.97838866402765Q1055.3144057294937 407.3961643660939 1053.8407058600906 405.0835891864151Q1052.3670059906874 402.7710140067363 1049.8957246712268 401.2292972202838Q1047.4244433517663 399.6649081281481 1044.1142867220299 398.6673266780906Q1040.8041300922937 397.6697452280331 1037.1312165716272 396.80819761207437L1037.1312165716272 396.80819761207437Q1031.5538293735785 395.4478592710868 1026.5659221232909 393.7020917334862Q1021.6006871786865 391.9336518902024 1017.8824290466539 389.09961367981174Q1014.1868432203046 386.2882477751042 1011.9876295690415 382.093871223726Q1009.7884159177781 377.8994946723478 1009.7884159177781 371.68728291517147L1009.7884159177781 371.68728291517147Q1009.7884159177781 365.8831726602914 1012.1916803201893 361.64345149754695Q1014.5722724169175 357.42640264048566 1018.6079428285138 354.7057259585106Q1022.6209409344272 352.0077215822187 1027.9262604642786 350.69272785259744Q1033.2315799941298 349.37773412297616 1039.058362554693 349.37773412297616ZM1104.717359813024 370.41763379691645L1105.4428735948838 370.41763379691645Q1107.9141549143446 365.47507115799516 1110.7481931247353 361.48474535776506Q1113.582231335126 357.494419557535 1117.0057494932778 354.7057259585106L1117.0057494932778 354.7057259585106Q1120.111855371866 352.0077215822187 1123.8527858095817 350.69272785259744Q1127.5937162472974 349.37773412297616 1132.3775727464367 349.37773412297616L1132.3775727464367 349.37773412297616Q1133.9873064499386 349.37773412297616 1136.0958308784693 349.53644026275805Q1138.204355307 349.69514640253993 1140.1088289843826 350.10324790483617L1140.1088289843826 350.10324790483617Q1139.7914167048189 354.0709013993831 1139.3606428968394 357.58510878026755Q1138.92986908886 361.09931616115193 1138.204355307 364.68154045908574L1138.204355307 364.68154045908574Q1134.21402950677 363.95602667722574 1130.9038728770338 363.638614397662Q1127.5937162472974 363.32120211809826 1124.646316508491 363.79732053744385L1124.646316508491 363.79732053744385Q1121.1547814332898 364.4321450965714 1118.5474662797303 366.1552403284889Q1115.962823431854 367.8783355604064 1113.763609780591 370.68970146511396Q1111.587068435011 373.52373967550466 1109.5012163121635 377.46872086436844Q1107.438036494999 381.41370205323227 1104.9667551755383 386.51497083193544L1104.9667551755383 386.51497083193544L1104.9667551755383 434.10414046081553L1091.2500102372476 434.10414046081553L1091.2500102372476 383.00076345105106Q1091.2500102372476 377.99018389508035 1091.136648708832 374.15856423463214Q1091.0232871804162 370.326944574184 1090.6605302894861 366.8807541103489Q1090.2977733985563 363.4118913408307 1089.5722596166963 360.01104548836196Q1088.8694181405194 356.63287194157624 1087.6677859393137 352.4838400015643L1087.6677859393137 352.4838400015643Q1091.0232871804162 351.59962007992243 1094.24275458742 350.89677860374553Q1097.484894300107 350.17126482188553 1100.8177232355263 349.53644026275805L1100.8177232355263 349.53644026275805Q1101.9286662139996 352.7332353640787 1102.6088353844932 355.2045166835394Q1103.289004554987 357.675798003 1103.6971060572832 360.01104548836196Q1104.0825352538964 362.368965279407 1104.2865860050445 364.79490198750136Q1104.4906367561928 367.2208386955958 1104.717359813024 370.41763379691645L1104.717359813024 370.41763379691645ZM1169.288086398565 416.23836358251276L1169.288086398565 416.23836358251276Q1171.28324929868 416.23836358251276 1173.0743614476467 416.96387736437276Q1174.8654735966136 417.68939114623277 1176.2258119376013 419.0497294872203L1176.2258119376013 419.0497294872203Q1179.0145055366256 421.83842308624475 1179.0145055366256 425.9647827205735L1179.0145055366256 425.9647827205735Q1179.0145055366256 430.04579774353607 1176.2258119376013 432.8344913425605L1176.2258119376013 432.8344913425605Q1174.8654735966136 434.19482968354805 1173.0743614476467 434.94301577109115Q1171.28324929868 435.69120185863426 1169.288086398565 435.69120185863426L1169.288086398565 435.69120185863426Q1167.2929234984497 435.69120185863426 1165.5471559608493 434.94301577109115Q1163.8013884232485 434.19482968354805 1162.441050082261 432.8344913425605L1162.441050082261 432.8344913425605Q1161.0807117412735 431.474153001573 1160.3325256537303 429.72838546397236Q1159.561667260504 427.9599456206886 1159.561667260504 425.9647827205735L1159.561667260504 425.9647827205735Q1159.561667260504 423.9922921261416 1160.3325256537303 422.1785076714916Q1161.0807117412735 420.3873955225247 1162.441050082261 419.0497294872203L1162.441050082261 419.0497294872203Q1165.2297436812853 416.23836358251276 1169.288086398565 416.23836358251276ZM1239.1868048196404 349.37773412297616L1239.1868048196404 349.37773412297616Q1243.1091137028209 349.37773412297616 1247.3261625598823 349.96721407073744Q1251.5432114169437 350.5793663241818 1255.6242264399061 352.23444463904997L1255.6242264399061 352.23444463904997Q1259.6825691571855 354.00288448233374 1263.3101380664855 356.99562883250627Q1266.9377069757854 359.9657008769957 1269.72640057481 364.74955737613516L1269.72640057481 364.74955737613516Q1272.5150941738345 369.6241030980071 1274.1021555716532 376.42579480294467Q1275.689216969472 383.2501588135654 1275.689216969472 392.6591656720624L1275.689216969472 392.6591656720624Q1275.689216969472 402.0681725305594 1274.1021555716532 408.86986423549706Q1272.5150941738345 415.69422824611775 1269.72640057481 420.4780847452572L1269.72640057481 420.4780847452572Q1266.9377069757854 425.32995816144603 1263.3101380664855 428.3680471229848Q1259.6825691571855 431.38346377884045 1255.6242264399061 433.06121439939176L1255.6242264399061 433.06121439939176Q1251.5432114169437 434.82965424267553 1247.3261625598823 435.4191341904368Q1243.1091137028209 436.008614138198 1239.1868048196404 436.008614138198L1239.1868048196404 436.008614138198Q1235.3778574648752 436.008614138198 1231.1834809134969 435.4191341904368Q1226.989104362119 434.82965424267553 1222.9307616448393 433.06121439939176L1222.9307616448393 433.06121439939176Q1218.87241892756 431.38346377884045 1215.290194629626 428.3680471229848Q1211.6852980260091 425.32995816144603 1208.8966044269848 420.4780847452572L1208.8966044269848 420.4780847452572Q1206.1079108279603 415.69422824611775 1204.5208494301417 408.86986423549706Q1202.9337880323228 402.0681725305594 1202.9337880323228 392.6591656720624L1202.9337880323228 392.6591656720624Q1202.9337880323228 383.2501588135654 1204.5208494301417 376.42579480294467Q1206.1079108279603 369.6241030980071 1208.8966044269848 364.74955737613516L1208.8966044269848 364.74955737613516Q1211.6852980260091 359.9657008769957 1215.290194629626 356.99562883250627Q1218.87241892756 354.00288448233374 1222.9307616448393 352.23444463904997L1222.9307616448393 352.23444463904997Q1226.989104362119 350.5793663241818 1231.1381363021308 349.96721407073744Q1235.2871682421426 349.37773412297616 1239.1868048196404 349.37773412297616ZM1239.1868048196404 360.62319774180634L1239.1868048196404 360.62319774180634Q1234.6523436830153 360.62319774180634 1230.616673271419 362.05155299984324Q1226.6036751655056 363.47990825788014 1223.5655862039669 367.06213255581395L1223.5655862039669 367.06213255581395Q1220.4594803253788 370.7350460764802 1218.6230235650455 376.8792409166072Q1216.7865668047125 383.00076345105106 1216.7865668047125 392.6591656720624L1216.7865668047125 392.6591656720624Q1216.7865668047125 402.2268786703413 1218.6230235650455 408.3937458161514Q1220.4594803253788 414.5832852676446 1223.5655862039669 418.1655095655784L1223.5655862039669 418.1655095655784Q1226.6036751655056 421.83842308624475 1230.616673271419 423.22143373291533Q1234.6523436830153 424.62711668526913 1239.1868048196404 424.62711668526913L1239.1868048196404 424.62711668526913Q1243.8119551789978 424.62711668526913 1247.9156425076435 423.22143373291533Q1252.019329836289 421.83842308624475 1255.1254357148773 418.1655095655784L1255.1254357148773 418.1655095655784Q1258.2542138991487 414.5832852676446 1260.0453260481156 408.3937458161514Q1261.8364381970825 402.2268786703413 1261.8364381970825 392.6591656720624L1261.8364381970825 392.6591656720624Q1261.8364381970825 383.00076345105106 1260.0453260481156 376.8792409166072Q1258.2542138991487 370.7350460764802 1255.1254357148773 367.06213255581395L1255.1254357148773 367.06213255581395Q1252.019329836289 363.47990825788014 1247.9156425076435 362.05155299984324Q1243.8119551789978 360.62319774180634 1239.1868048196404 360.62319774180634ZM1311.2393922806125 370.41763379691645L1311.9649060624727 370.41763379691645Q1314.4361873819332 365.47507115799516 1317.2702255923239 361.48474535776506Q1320.1042638027145 357.494419557535 1323.5277819608666 354.7057259585106L1323.5277819608666 354.7057259585106Q1326.6338878394547 352.0077215822187 1330.3748182771703 350.69272785259744Q1334.115748714886 349.37773412297616 1338.8996052140253 349.37773412297616L1338.8996052140253 349.37773412297616Q1340.5093389175274 349.37773412297616 1342.617863346058 349.53644026275805Q1344.7263877745886 349.69514640253993 1346.6308614519712 350.10324790483617L1346.6308614519712 350.10324790483617Q1346.3134491724074 354.0709013993831 1345.8826753644282 357.58510878026755Q1345.4519015564488 361.09931616115193 1344.7263877745886 364.68154045908574L1344.7263877745886 364.68154045908574Q1340.7360619743586 363.95602667722574 1337.4259053446224 363.638614397662Q1334.115748714886 363.32120211809826 1331.1683489760796 363.79732053744385L1331.1683489760796 363.79732053744385Q1327.6768139008784 364.4321450965714 1325.0694987473191 366.1552403284889Q1322.4848558994427 367.8783355604064 1320.2856422481796 370.68970146511396Q1318.1091009025997 373.52373967550466 1316.0232487797518 377.46872086436844Q1313.9600689625875 381.41370205323227 1311.488787643127 386.51497083193544L1311.488787643127 386.51497083193544L1311.488787643127 434.10414046081553L1297.772042704836 434.10414046081553L1297.772042704836 383.00076345105106Q1297.772042704836 377.99018389508035 1297.6586811764205 374.15856423463214Q1297.5453196480048 370.326944574184 1297.182562757075 366.8807541103489Q1296.8198058661449 363.4118913408307 1296.0942920842847 360.01104548836196Q1295.391450608108 356.63287194157624 1294.1898184069023 352.4838400015643L1294.1898184069023 352.4838400015643Q1297.5453196480048 351.59962007992243 1300.7647870550086 350.89677860374553Q1304.0069267676956 350.17126482188553 1307.339755703115 349.53644026275805L1307.339755703115 349.53644026275805Q1308.450698681588 352.7332353640787 1309.1308678520818 355.2045166835394Q1309.8110370225756 357.675798003 1310.2191385248718 360.01104548836196Q1310.604567721485 362.368965279407 1310.8086184726333 364.79490198750136Q1311.0126692237814 367.2208386955958 1311.2393922806125 370.41763379691645L1311.2393922806125 370.41763379691645ZM1403.4703317995663 351.2141908833093L1410.7934865352158 351.2141908833093Q1414.239676999051 351.2141908833093 1416.824319846927 351.12350166057684Q1419.4089626948034 351.0554847435274 1421.8122270972146 350.7607447696468Q1424.1928191939428 350.4886771014493 1426.6187559020373 349.9218694593711Q1429.067364915815 349.37773412297616 1432.3321769341849 348.3348080615524L1432.3321769341849 348.3348080615524Q1433.3524306899255 351.3728970230912 1434.3500121399832 354.0709013993831Q1435.3475935900406 356.7915780813581 1436.3905196514643 359.64828859743193L1436.3905196514643 359.64828859743193Q1433.828549109271 360.62319774180634 1431.6973523750573 361.1673330782013Q1429.5434833351603 361.73414072027947 1427.4122866009468 362.09689761120944Q1425.303762172416 362.43698219645637 1423.1952377438854 362.5730160305551Q1421.086713315355 362.6863775589707 1418.6834489129435 362.77706678170324L1418.6834489129435 362.77706678170324Q1420.928007175573 366.35929107963705 1422.1296393767786 370.82573529921274Q1423.308599272301 375.26950721310527 1423.308599272301 380.5294821315904L1423.308599272301 380.5294821315904Q1423.308599272301 388.1927214524867 1420.9960240926223 393.8834701789512Q1418.6834489129435 399.59689121109875 1414.398383138833 403.5872170113288L1414.398383138833 403.5872170113288Q1410.090645059039 407.5548705058758 1404.0598117473276 409.595378017357Q1398.0516507412995 411.63588552883834 1390.547117560185 411.63588552883834L1390.547117560185 411.63588552883834Q1386.7381702054197 411.63588552883834 1383.314652047268 411.1824394151758Q1379.868461583433 410.7516656071964 1376.7623557048448 409.64072262872327L1376.7623557048448 409.64072262872327Q1376.059514228668 411.5451963061058 1375.5380511979558 413.54035920622084Q1375.016588167244 415.53552210633586 1375.0619327786105 417.3266342553028Q1375.0846050842936 419.11774640426967 1375.7421019491042 420.59144627367283Q1376.3769265082317 422.06514614307594 1377.9639879060503 422.9493660647179L1377.9639879060503 422.9493660647179Q1378.7575186049598 423.4254844840635 1379.6417385266016 423.697552152261Q1380.5259584482435 423.9922921261416 1381.7502629551325 424.17367057160664Q1382.974567462021 424.3777213227547 1384.743007305305 424.4910828511704Q1386.4887748429053 424.62711668526913 1388.9600561623663 424.62711668526913L1388.9600561623663 424.62711668526913Q1391.3633205647777 424.6951336023185 1394.5827879717813 424.6951336023185Q1397.8022553787853 424.6951336023185 1402.1099934585789 424.6951336023185L1402.1099934585789 424.6951336023185Q1414.5570892786147 424.6951336023185 1420.928007175573 429.90976390943734Q1427.2989250725311 435.1470665222393 1427.2989250725311 446.14313477855507L1427.2989250725311 446.14313477855507Q1427.2989250725311 450.60957899813076 1425.8705698144943 454.07844176764894Q1424.4422145564572 457.5473045371671 1421.9255886256303 460.08660277367716Q1419.4089626948034 462.6485733158703 1415.9854445366516 464.3489962421047Q1412.5619263784995 466.0720914740223 1408.5716005782695 467.1376898411291Q1404.5812747780394 468.2259605139192 1400.2508643925623 468.6567343218985Q1395.8977817014027 469.08750812987796 1391.5220267045595 469.08750812987796L1391.5220267045595 469.08750812987796Q1387.123599402033 469.08750812987796 1382.7024997938236 468.6113897105323Q1378.2814001856143 468.13527129118665 1374.064351328553 467.43242981500975L1374.064351328553 467.43242981500975Q1369.8246301658085 466.70691603314975 1366.129044339459 465.7773515001416Q1362.4107862074263 464.87045927281656 1359.5540756913526 463.98623935117473L1359.5540756913526 463.98623935117473Q1360.6650186698257 461.2882349748828 1362.0707016221797 458.56755829290773Q1363.45371226885 455.8695539166158 1365.040773666669 453.46628951420456L1365.040773666669 453.46628951420456Q1370.0740255283229 454.91731707792457 1377.0117510673592 456.25498311322895Q1383.9494766063954 457.6153214542165 1392.3835743205182 457.6153214542165L1392.3835743205182 457.6153214542165Q1396.2151939809662 457.6153214542165 1399.9334521129988 457.1392030348709Q1403.6290379393483 456.66308461552524 1406.6217822895208 455.34809088590396Q1409.6145266396932 454.0330971562827 1411.4509834000266 451.8338835050195Q1413.2647678546766 449.6573421594395 1413.2647678546766 446.14313477855507L1413.2647678546766 446.14313477855507Q1413.2647678546766 442.47022125788874 1411.9497741250555 440.4750583577737Q1410.634780395434 438.4798954576587 1408.4128944384877 437.52765861896745Q1406.1910084815415 436.5754217802762 1403.1529195200026 436.4167156404943Q1400.1148305584636 436.25800950071243 1396.7820016230444 436.25800950071243L1396.7820016230444 436.25800950071243L1386.3300687031235 436.25800950071243Q1381.6369014267166 436.25800950071243 1377.4878694867048 435.53249571885243Q1373.3388375466927 434.82965424267553 1370.2327316681046 433.106559010758Q1367.1266257895165 431.38346377884045 1365.3355136405496 428.59477017981607Q1363.5444014915827 425.8060765807917 1363.5444014915827 421.7477338635122L1363.5444014915827 421.7477338635122Q1363.5444014915827 417.84809728601465 1364.9727567496195 413.65372073463647Q1366.4011120076564 409.48201648894144 1368.7136871873352 405.17427840914763L1368.7136871873352 405.17427840914763Q1363.45371226885 401.3426587486994 1360.6196740584596 395.03975776879054Q1357.808308153752 388.75952909456487 1357.808308153752 380.5294821315904L1357.808308153752 380.5294821315904Q1357.808308153752 373.047621256159 1360.1435556391139 367.26618330696203Q1362.501475430159 361.48474535776506 1366.8092135099525 357.42640264048566L1366.8092135099525 357.42640264048566Q1371.1169515897466 353.3680599232062 1377.0797679844086 351.3728970230912Q1383.0652566847536 349.37773412297616 1390.547117560185 349.37773412297616L1390.547117560185 349.37773412297616Q1397.5755323219537 349.37773412297616 1403.4703317995663 351.2141908833093L1403.4703317995663 351.2141908833093ZM1390.547117560185 360.37380237929193L1390.547117560185 360.37380237929193Q1385.5365380042142 360.37380237929193 1381.9543137062803 361.89284686006135Q1378.3720894083467 363.4118913408307 1376.0821865343512 366.0645511057564Q1373.8149559660385 368.7398831763652 1372.7493575989315 372.4581413083977Q1371.6610869261415 376.15372713474716 1371.6610869261415 380.5294821315904L1371.6610869261415 380.5294821315904Q1371.6610869261415 384.9959263511661 1372.7493575989315 388.66883987183235Q1373.8149559660385 392.3417533924987 1376.1275311457173 395.0170854631075Q1378.4401063253958 397.6697452280331 1381.9996583176467 399.14344509743626Q1385.5365380042142 400.6171449668394 1390.547117560185 400.6171449668394L1390.547117560185 400.6171449668394Q1395.5803694218387 400.6171449668394 1399.1625937197725 399.14344509743626Q1402.7448180177064 397.6697452280331 1405.0347208917021 395.0170854631075Q1407.3019514600146 392.3417533924987 1408.3675498271216 388.6234952604661Q1409.4558204999114 384.92790943411666 1409.4558204999114 380.5294821315904L1409.4558204999114 380.5294821315904Q1409.4558204999114 376.15372713474716 1408.3675498271216 372.4581413083977Q1407.3019514600146 368.7398831763652 1405.0347208917021 366.0645511057564Q1402.7448180177064 363.4118913408307 1399.1625937197725 361.89284686006135Q1395.5803694218387 360.37380237929193 1390.547117560185 360.37380237929193Z " fill="#7d141c" transform="matrix(0.6091658037478767,0,0,0.6091658037478768,0,59.935343746935345)"/></g></svg>