<?xml version="1.0" encoding="UTF-8"?>
<svg id="Layer_1" data-name="Layer 1" xmlns="http://www.w3.org/2000/svg" viewBox="0 0 131.58 44.18">
  <defs>
    <style>
      .cls-1 {
        fill: #763c76;
      }

      .cls-2 {
        fill: #141414;
      }

      .cls-3 {
        fill: #fff;
      }

      .cls-4 {
        fill: #231f20;
        font-family: MyriadPro-Regular, 'Myriad Pro';
        font-size: 9.65px;
      }

      .cls-5 {
        fill: #753b75;
      }

      .cls-6 {
        fill: #151515;
      }

      .cls-7 {
        fill: #101010;
      }

      .cls-8 {
        fill: #0c0c0c;
      }

      .cls-9 {
        fill: #131313;
      }

      .cls-10 {
        fill: #fcfcfc;
      }

      .cls-11 {
        fill: #fbf9fb;
      }

      .cls-12 {
        fill: #fdfdfd;
      }
    </style>
  </defs>
  <rect class="cls-3" x="-4.11" width="131" height="44.18"/>
  <path class="cls-5" d="M18.9,42c1.77-8.12-7.03-4.53-12.02-10.49C-4.73,17.66,12.99-2.18,27.91,9.48c14.04,10.97.93,24.83-9.01,32.52Z"/>
  <path class="cls-8" d="M40.89,17.5c.12-.41,1.15-.98,1.52-1.49,1.93-.8,1.36,2.2,1.96,2,1.06-.34,1.98-1.68,4.09-1.97,16.99-2.37,14.56,25.84-3.56,17.96-.46,2.04.67,7.61-.1,8.89-.38.63-3.91,1.27-3.91-.39,0-5.36-1.07-21.2,0-25Z"/>
  <path class="cls-7" d="M89.54,18.35c8.37,8.56-2.34,21.91-12.18,15.68-12.61-7.98,2.62-25.47,12.18-15.68Z"/>
  <path class="cls-2" d="M112.88,11.99c-8.37,1.89-2.75,3.16-1.52,4.99,2.73,4.05-2.23,2.46-2.54,3.57-1.22,4.23,3.26,15.28-3.93,14.45-.48-.47.36-11.1-.03-13.47-.28-1.66-1.97-2.59-2.01-4.02-.02-.6,1.81-.32,2.03-1.18.55-2.14-.93-5.38,2-6.84,2.36-1.17,6.25-.92,6.01,2.49Z"/>
  <path class="cls-9" d="M102.88,9.01c2.2,2.21-3.55,4.22-3.99,5.51-.73,2.13,1.81,1.45,2.49,2.44,2.74,3.98-2.03,2.71-2.4,3.1-.62.65.21,11.95-.1,14.44-.18,1.48-4.38.34-4.01-1.99.78-4.49-2.6-20.78,2.23-22.83,1.09-.46,5.34-1.09,5.77-.66Z"/>
  <path class="cls-6" d="M62.89,17.5c.12-.41,1.15-.98,1.52-1.49,1.93-.8,1.36,2.2,1.96,2,.52-.17,6.19-3.9,6.53-1.5.6,4.37-4.78,2.83-5.82,6.18-1.3,4.22,2.6,13.04-4.19,12.31.84-4.68-1.14-13.44,0-17.5Z"/>
  <path class="cls-11" d="M16.63,11.21c11.28-2.2,17.06,13.98,6.97,18.99-14.99,7.45-21.56-16.15-6.97-18.99Z"/>
  <path class="cls-12" d="M46.13,29.76c-5.27-5.27,4.41-14.52,8.82-7.32,4.2,6.86-4.61,11.53-8.82,7.32Z"/>
  <path class="cls-10" d="M78.13,29.76c-4.83-4.82,3-13.77,8.75-8.25,5.53,5.31-3.53,13.46-8.75,8.25Z"/>
  <path class="cls-1" d="M22.62,18.26c5.17,5.43-8.4,12.7-8.79,3.26-.24-5.79,5.54-6.68,8.79-3.26Z"/>
  <text class="cls-4" transform="translate(119.01 17.36) scale(.87 1)"><tspan x="0" y="0">TM</tspan></text>
</svg>